<svg width="109" height="158" viewBox="0 0 109 158" fill="none" xmlns="http://www.w3.org/2000/svg">
<path d="M1.66301 158V137.672L55.5929 84.804C60.7508 79.5955 65.049 74.9686 68.4876 70.9233C71.9262 66.8779 74.5051 62.9589 76.2244 59.1664C77.9436 55.3738 78.8033 51.3285 78.8033 47.0302C78.8033 42.1252 77.6908 37.9281 75.4659 34.439C73.2409 30.8993 70.1816 28.1687 66.2879 26.2471C62.3942 24.3256 57.9696 23.3648 53.014 23.3648C47.9067 23.3648 43.4315 24.4267 39.5884 26.5505C35.7453 28.6238 32.7618 31.582 30.638 35.4251C28.5648 39.2682 27.5281 43.8445 27.5281 49.1541H0.752795C0.752795 39.2935 3.00304 30.7223 7.50352 23.4406C12.004 16.159 18.1985 10.5207 26.087 6.52591C34.026 2.53109 43.1281 0.533686 53.3933 0.533686C63.8101 0.533686 72.9628 2.48052 80.8513 6.3742C88.7398 10.2679 94.8584 15.6027 99.2072 22.3787C103.607 29.1547 105.806 36.8915 105.806 45.5891C105.806 51.4043 104.694 57.1184 102.469 62.7314C100.244 68.3443 96.3248 74.5641 90.7119 81.3907C85.1495 88.2172 77.3368 96.485 67.274 106.194L40.4986 133.424V134.486H108.158V158H1.66301Z" fill="url(#paint0_linear_80_92)"/>
<defs>
<linearGradient id="paint0_linear_80_92" x1="54.1897" y1="3" x2="54.1897" y2="245" gradientUnits="userSpaceOnUse">
<stop stop-color="#CACACA"/>
<stop offset="1" stop-color="#DADADA" stop-opacity="0"/>
</linearGradient>
</defs>
</svg>
