<svg width="115" height="161" viewBox="0 0 115 161" fill="none" xmlns="http://www.w3.org/2000/svg">
<path d="M56.9905 160.124C46.068 160.124 36.3591 158.253 27.8638 154.511C19.4191 150.769 12.7442 145.56 7.83919 138.886C2.93417 132.211 0.329958 124.499 0.0265553 115.751H28.5465C28.7993 119.948 30.1899 123.614 32.7183 126.749C35.2466 129.834 38.6093 132.236 42.8064 133.955C47.0035 135.675 51.7063 136.534 56.9147 136.534C62.4771 136.534 67.4074 135.573 71.7056 133.652C76.0038 131.68 79.3665 128.949 81.7937 125.46C84.221 121.971 85.4093 117.951 85.3587 113.4C85.4093 108.697 84.1957 104.55 81.7179 100.96C79.2401 97.3699 75.6498 94.5634 70.9471 92.5407C66.2949 90.5181 60.6819 89.5067 54.1082 89.5067H40.3792V67.8134H54.1082C59.5189 67.8134 64.2469 66.8779 68.2923 65.0069C72.3882 63.1359 75.5993 60.5064 77.9254 57.1184C80.2514 53.6798 81.3892 49.7103 81.3386 45.2098C81.3892 40.8105 80.4031 36.9927 78.3805 33.7564C76.4083 30.4695 73.6019 27.9158 69.961 26.0954C66.3707 24.275 62.1484 23.3648 57.2939 23.3648C52.5406 23.3648 48.1413 24.2244 44.0959 25.9437C40.0505 27.663 36.7889 30.1155 34.3111 33.3012C31.8333 36.4364 30.5186 40.1784 30.3669 44.5272H3.28814C3.49041 35.8296 5.99349 28.194 10.7974 21.6202C15.6518 14.9959 22.1244 9.83805 30.2152 6.14665C38.3059 2.40468 47.3828 0.533686 57.4456 0.533686C67.8119 0.533686 76.8129 2.48052 84.4485 6.3742C92.1347 10.2173 98.0764 15.4004 102.273 21.9236C106.471 28.4468 108.569 35.6526 108.569 43.5411C108.62 52.2892 106.041 59.6215 100.832 65.5378C95.6744 71.4542 88.8984 75.3226 80.5043 77.143V78.3566C91.4268 79.8737 99.7957 83.919 105.611 90.4928C111.477 97.0159 114.384 105.132 114.334 114.841C114.334 123.538 111.856 131.326 106.9 138.203C101.995 145.03 95.2193 150.39 86.5723 154.283C77.9759 158.177 68.1153 160.124 56.9905 160.124Z" fill="url(#paint0_linear_80_94)"/>
<defs>
<linearGradient id="paint0_linear_80_94" x1="57" y1="3" x2="57" y2="245" gradientUnits="userSpaceOnUse">
<stop stop-color="#CACACA"/>
<stop offset="1" stop-color="#DADADA" stop-opacity="0"/>
</linearGradient>
</defs>
</svg>
