<svg width="42" height="46" viewBox="0 0 42 46" fill="none" xmlns="http://www.w3.org/2000/svg">
<path fill-rule="evenodd" clip-rule="evenodd" d="M20.0672 0.431875C20.3048 0.288461 20.5749 0.212891 20.85 0.212891C21.1251 0.212891 21.3952 0.288461 21.6328 0.431875L26.2921 3.24464C26.6367 3.46501 26.8844 3.81594 26.9824 4.22257C27.0804 4.6292 27.021 5.05936 26.8167 5.42128C26.6125 5.7832 26.2796 6.04825 25.8892 6.15988C25.4987 6.27152 25.0815 6.2209 24.7266 6.01884L20.85 3.67951L16.9734 6.01884C16.7971 6.13159 16.6008 6.20669 16.396 6.23972C16.1912 6.27276 15.9821 6.26305 15.781 6.21118C15.5799 6.15931 15.3908 6.06633 15.225 5.9377C15.0592 5.80908 14.9199 5.64742 14.8154 5.46225C14.7109 5.27708 14.6433 5.07215 14.6165 4.85953C14.5898 4.64691 14.6045 4.4309 14.6597 4.22424C14.7149 4.01757 14.8095 3.82443 14.938 3.65619C15.0665 3.48795 15.2263 3.34802 15.4078 3.24464L20.0672 0.431875ZM8.21376 9.44643C8.42082 9.81437 8.47823 10.2523 8.3734 10.664C8.26856 11.0757 8.01005 11.4275 7.65464 11.6422L5.29389 13.0668L7.65464 14.4914C7.83622 14.5948 7.99596 14.7347 8.12445 14.903C8.25294 15.0712 8.34758 15.2643 8.40279 15.471C8.458 15.6777 8.47267 15.8937 8.44593 16.1063C8.41918 16.3189 8.35157 16.5238 8.24708 16.709C8.14258 16.8942 8.00332 17.0558 7.83749 17.1845C7.67166 17.3131 7.48262 17.4061 7.28151 17.4579C7.0804 17.5098 6.87129 17.5195 6.6665 17.4865C6.46171 17.4535 6.26538 17.3784 6.08909 17.2656L3.76561 15.8646V17.8869C3.76561 18.313 3.60198 18.7216 3.31071 19.023C3.01945 19.3243 2.6244 19.4935 2.21249 19.4935C1.80057 19.4935 1.40553 19.3243 1.11426 19.023C0.822995 18.7216 0.659363 18.313 0.659363 17.8869V13.0668C0.659282 12.786 0.730369 12.51 0.865536 12.2664C1.0007 12.0229 1.19523 11.8202 1.42971 11.6786L6.08909 8.86802C6.2653 8.76163 6.46004 8.69219 6.6622 8.66368C6.86435 8.63517 7.06996 8.64814 7.26727 8.70185C7.46457 8.75556 7.64972 8.84897 7.81212 8.97673C7.97453 9.10448 8.111 9.26409 8.21376 9.44643ZM33.4862 9.44643C33.589 9.26409 33.7254 9.10448 33.8879 8.97673C34.0503 8.84897 34.2354 8.75556 34.4327 8.70185C34.63 8.64814 34.8356 8.63517 35.0378 8.66368C35.2399 8.69219 35.4347 8.76163 35.6109 8.86802L40.2703 11.6786C40.5047 11.8202 40.6993 12.0229 40.8344 12.2664C40.9696 12.51 41.0407 12.786 41.0406 13.0668V17.8869C41.0406 18.313 40.877 18.7216 40.5857 19.023C40.2944 19.3243 39.8994 19.4935 39.4875 19.4935C39.0756 19.4935 38.6805 19.3243 38.3893 19.023C38.098 18.7216 37.9344 18.313 37.9344 17.8869V15.8646L35.6109 17.2656C35.4346 17.3784 35.2383 17.4535 35.0335 17.4865C34.8287 17.5195 34.6196 17.5098 34.4185 17.4579C34.2174 17.4061 34.0283 17.3131 33.8625 17.1845C33.6967 17.0558 33.5574 16.8942 33.4529 16.709C33.3484 16.5238 33.2808 16.3189 33.254 16.1063C33.2273 15.8937 33.242 15.6777 33.2972 15.471C33.3524 15.2643 33.447 15.0712 33.5755 14.903C33.704 14.7347 33.8638 14.5948 34.0453 14.4914L36.4061 13.0668L34.0453 11.6422C33.6899 11.4275 33.4314 11.0757 33.3266 10.664C33.2217 10.2523 33.2792 9.81437 33.4862 9.44643ZM14.8487 20.6932C14.9515 20.5109 15.0879 20.3512 15.2504 20.2235C15.4128 20.0957 15.5979 20.0023 15.7952 19.9486C15.9925 19.8949 16.1981 19.8819 16.4003 19.9104C16.6024 19.939 16.7972 20.0084 16.9734 20.1148L20.85 22.4541L24.7266 20.1148C24.9029 20.002 25.0992 19.9269 25.304 19.8939C25.5088 19.8609 25.7179 19.8706 25.919 19.9224C26.1201 19.9743 26.3092 20.0673 26.475 20.1959C26.6408 20.3246 26.7801 20.4862 26.8846 20.6714C26.9891 20.8565 27.0567 21.0615 27.0834 21.2741C27.1102 21.4867 27.0955 21.7027 27.0403 21.9094C26.9851 22.1161 26.8904 22.3092 26.7619 22.4774C26.6335 22.6457 26.4737 22.7856 26.2921 22.889L22.4031 25.2369V29.1336C22.4031 29.5597 22.2395 29.9684 21.9482 30.2697C21.6569 30.571 21.2619 30.7403 20.85 30.7403C20.4381 30.7403 20.043 30.571 19.7518 30.2697C19.4605 29.9684 19.2969 29.5597 19.2969 29.1336V25.2347L15.4078 22.889C15.0524 22.6743 14.7939 22.3225 14.6891 21.9108C14.5842 21.4991 14.6417 21.0611 14.8487 20.6932ZM2.21249 25.9203C2.6244 25.9203 3.01945 26.0895 3.31071 26.3908C3.60198 26.6922 3.76561 27.1008 3.76561 27.5269V31.4258L7.65464 33.7716C7.83622 33.875 7.99596 34.0149 8.12445 34.1831C8.25294 34.3514 8.34758 34.5445 8.40279 34.7512C8.458 34.9578 8.47267 35.1739 8.44593 35.3865C8.41918 35.5991 8.35157 35.804 8.24708 35.9892C8.14258 36.1744 8.00332 36.336 7.83749 36.4646C7.67166 36.5933 7.48262 36.6862 7.28151 36.7381C7.0804 36.79 6.87129 36.7997 6.6665 36.7667C6.46171 36.7336 6.26538 36.6585 6.08909 36.5458L1.42971 33.7352C1.19523 33.5936 1.0007 33.3909 0.865536 33.1474C0.730369 32.9038 0.659282 32.6278 0.659363 32.347V27.5269C0.659363 27.1008 0.822995 26.6922 1.11426 26.3908C1.40553 26.0895 1.80057 25.9203 2.21249 25.9203ZM39.4875 25.9203C39.8994 25.9203 40.2944 26.0895 40.5857 26.3908C40.877 26.6922 41.0406 27.1008 41.0406 27.5269V32.347C41.0407 32.6278 40.9696 32.9038 40.8344 33.1474C40.6993 33.3909 40.5047 33.5936 40.2703 33.7352L35.6109 36.5458C35.4346 36.6585 35.2383 36.7336 35.0335 36.7667C34.8287 36.7997 34.6196 36.79 34.4185 36.7381C34.2174 36.6862 34.0283 36.5933 33.8625 36.4646C33.6967 36.336 33.5574 36.1744 33.4529 35.9892C33.3484 35.804 33.2808 35.5991 33.254 35.3865C33.2273 35.1739 33.242 34.9578 33.2972 34.7512C33.3524 34.5445 33.447 34.3514 33.5755 34.1831C33.704 34.0149 33.8638 33.875 34.0453 33.7716L37.9344 31.4237V27.5269C37.9344 27.1008 38.098 26.6922 38.3893 26.3908C38.6805 26.0895 39.0756 25.9203 39.4875 25.9203ZM20.85 37.167C21.2619 37.167 21.6569 37.3363 21.9482 37.6376C22.2395 37.9389 22.4031 38.3476 22.4031 38.7737V40.796L24.7266 39.395C24.9029 39.2822 25.0992 39.2071 25.304 39.1741C25.5088 39.141 25.7179 39.1507 25.919 39.2026C26.1201 39.2545 26.3092 39.3475 26.475 39.4761C26.6408 39.6047 26.7801 39.7664 26.8846 39.9515C26.9891 40.1367 27.0567 40.3417 27.0834 40.5543C27.1102 40.7669 27.0955 40.9829 27.0403 41.1896C26.9851 41.3962 26.8904 41.5894 26.7619 41.7576C26.6335 41.9258 26.4737 42.0658 26.2921 42.1692L21.6328 44.9819C21.3952 45.1253 21.1251 45.2009 20.85 45.2009C20.5749 45.2009 20.3048 45.1253 20.0672 44.9819L15.4078 42.1692C15.2263 42.0658 15.0665 41.9258 14.938 41.7576C14.8095 41.5894 14.7149 41.3962 14.6597 41.1896C14.6045 40.9829 14.5898 40.7669 14.6165 40.5543C14.6433 40.3417 14.7109 40.1367 14.8154 39.9515C14.9199 39.7664 15.0592 39.6047 15.225 39.4761C15.3908 39.3475 15.5799 39.2545 15.781 39.2026C15.9821 39.1507 16.1912 39.141 16.396 39.1741C16.6008 39.2071 16.7971 39.2822 16.9734 39.395L19.2969 40.796V38.7737C19.2969 38.3476 19.4605 37.9389 19.7518 37.6376C20.043 37.3363 20.4381 37.167 20.85 37.167Z" fill="black"/>
</svg>
