<svg width="50" height="52" viewBox="0 0 50 52" fill="none" xmlns="http://www.w3.org/2000/svg">
<rect width="50" height="52" fill="#1E1E1E"/>
<g clip-path="url(#clip0_0_1)">
<rect width="1728" height="7589" transform="translate(-837 -4285)" fill="white"/>
<g filter="url(#filter0_d_0_1)">
<rect x="-662" y="-656" width="1377" height="419" rx="60" fill="url(#paint0_linear_0_1)"/>
</g>
<path d="M18.7846 5.17833C19.0171 3.77817 20.2312 2.75 21.6521 2.75H28.3506C29.7715 2.75 30.9856 3.77817 31.2181 5.17833L31.7684 8.48758C31.9311 9.45375 32.577 10.2597 33.4346 10.7351C33.6258 10.8384 33.8144 10.9495 34.003 11.0632C34.8426 11.5695 35.863 11.7271 36.7801 11.3835L39.924 10.2055C40.5682 9.9632 41.2776 9.95745 41.9257 10.1893C42.5739 10.4211 43.1187 10.8754 43.4631 11.4713L46.8111 17.2761C47.1549 17.8721 47.276 18.5707 47.153 19.2476C47.03 19.9245 46.6709 20.5359 46.1395 20.9728L43.5484 23.1092C42.7915 23.7318 42.4169 24.6928 42.4376 25.6719C42.4412 25.8915 42.4412 26.1111 42.4376 26.3307C42.4169 27.3072 42.7915 28.2682 43.5484 28.8908L46.1421 31.0272C47.2374 31.9313 47.5216 33.4943 46.8137 34.7213L43.4606 40.5261C43.1166 41.1219 42.5724 41.5764 41.9248 41.8086C41.2772 42.0409 40.5682 42.0359 39.924 41.7945L36.7801 40.6165C35.863 40.2729 34.8426 40.4305 34.0004 40.9368C33.8131 41.0508 33.6236 41.161 33.4321 41.2675C32.577 41.7402 31.9311 42.5462 31.7684 43.5124L31.2181 46.8217C30.9856 48.2244 29.7715 49.25 28.3506 49.25H21.6495C20.2286 49.25 19.0171 48.2218 18.782 46.8217L18.2317 43.5124C18.0716 42.5462 17.4257 41.7402 16.5681 41.2649C16.3765 41.1593 16.187 41.0499 15.9997 40.9368C15.1601 40.4305 14.1397 40.2729 13.2201 40.6165L10.0761 41.7945C9.43218 42.0361 8.72341 42.0415 8.07586 41.8097C7.42831 41.5779 6.88394 41.124 6.53955 40.5287L3.18897 34.7239C2.84524 34.1279 2.72409 33.4293 2.84708 32.7524C2.97007 32.0755 3.32922 31.4641 3.86064 31.0272L6.4543 28.8908C7.20864 28.2708 7.58322 27.3072 7.56514 26.3307C7.5611 26.1111 7.5611 25.8915 7.56514 25.6719C7.58322 24.6902 7.20864 23.7318 6.4543 23.1092L3.86064 20.9728C3.32986 20.536 2.97113 19.9251 2.84816 19.2488C2.72519 18.5724 2.84594 17.8744 3.18897 17.2787L6.53955 11.4739C6.88362 10.8775 7.42825 10.4226 8.07641 10.1904C8.72457 9.95805 9.43415 9.96342 10.0787 10.2055L13.2201 11.3835C14.1397 11.7271 15.1601 11.5695 15.9997 11.0632C16.1857 10.9495 16.3769 10.841 16.5681 10.7325C17.4257 10.2598 18.0716 9.45375 18.2317 8.48758L18.7846 5.17833Z" stroke="black" stroke-width="3.77167" stroke-linecap="round" stroke-linejoin="round"/>
<path d="M32.75 26C32.75 28.0554 31.9335 30.0267 30.4801 31.4801C29.0267 32.9335 27.0554 33.75 25 33.75C22.9446 33.75 20.9733 32.9335 19.5199 31.4801C18.0665 30.0267 17.25 28.0554 17.25 26C17.25 23.9446 18.0665 21.9733 19.5199 20.5199C20.9733 19.0665 22.9446 18.25 25 18.25C27.0554 18.25 29.0267 19.0665 30.4801 20.5199C31.9335 21.9733 32.75 23.9446 32.75 26Z" stroke="black" stroke-width="3.77167" stroke-linecap="round" stroke-linejoin="round"/>
</g>
<defs>
<filter id="filter0_d_0_1" x="-882" y="-876" width="1877" height="919" filterUnits="userSpaceOnUse" color-interpolation-filters="sRGB">
<feFlood flood-opacity="0" result="BackgroundImageFix"/>
<feColorMatrix in="SourceAlpha" type="matrix" values="0 0 0 0 0 0 0 0 0 0 0 0 0 0 0 0 0 0 127 0" result="hardAlpha"/>
<feOffset dx="30" dy="30"/>
<feGaussianBlur stdDeviation="125"/>
<feComposite in2="hardAlpha" operator="out"/>
<feColorMatrix type="matrix" values="0 0 0 0 1 0 0 0 0 1 0 0 0 0 1 0 0 0 0.14 0"/>
<feBlend mode="normal" in2="BackgroundImageFix" result="effect1_dropShadow_0_1"/>
<feBlend mode="normal" in="SourceGraphic" in2="effect1_dropShadow_0_1" result="shape"/>
</filter>
<linearGradient id="paint0_linear_0_1" x1="-662" y1="-597.679" x2="-485.059" y2="103.589" gradientUnits="userSpaceOnUse">
<stop/>
<stop offset="1"/>
</linearGradient>
<clipPath id="clip0_0_1">
<rect width="1728" height="7589" fill="white" transform="translate(-837 -4285)"/>
</clipPath>
</defs>
</svg>
