<svg width="50" height="50" viewBox="0 0 50 50" fill="none" xmlns="http://www.w3.org/2000/svg">
<g filter="url(#filter0_di_30_305)">
<path d="M23.1338 1.30878C23.9535 -0.144571 26.0465 -0.144572 26.8662 1.30878L30.837 8.34883C32.4446 11.199 34.801 13.5554 37.6512 15.163L44.6912 19.1338C46.1446 19.9535 46.1446 22.0465 44.6912 22.8662L37.6512 26.837C34.801 28.4446 32.4446 30.801 30.837 33.6512L26.8662 40.6912C26.0465 42.1446 23.9535 42.1446 23.1338 40.6912L19.163 33.6512C17.5554 30.801 15.199 28.4446 12.3488 26.837L5.30878 22.8662C3.85543 22.0465 3.85543 19.9535 5.30878 19.1338L12.3488 15.163C15.199 13.5554 17.5554 11.199 19.163 8.34883L23.1338 1.30878Z" fill="white"/>
</g>
<defs>
<filter id="filter0_di_30_305" x="0.21875" y="0.21875" width="49.5625" height="49.5625" filterUnits="userSpaceOnUse" color-interpolation-filters="sRGB">
<feFlood flood-opacity="0" result="BackgroundImageFix"/>
<feColorMatrix in="SourceAlpha" type="matrix" values="0 0 0 0 0 0 0 0 0 0 0 0 0 0 0 0 0 0 127 0" result="hardAlpha"/>
<feOffset dy="4"/>
<feGaussianBlur stdDeviation="2"/>
<feComposite in2="hardAlpha" operator="out"/>
<feColorMatrix type="matrix" values="0 0 0 0 0 0 0 0 0 0 0 0 0 0 0 0 0 0 0.25 0"/>
<feBlend mode="normal" in2="BackgroundImageFix" result="effect1_dropShadow_30_305"/>
<feBlend mode="normal" in="SourceGraphic" in2="effect1_dropShadow_30_305" result="shape"/>
<feColorMatrix in="SourceAlpha" type="matrix" values="0 0 0 0 0 0 0 0 0 0 0 0 0 0 0 0 0 0 127 0" result="hardAlpha"/>
<feOffset dx="2" dy="1"/>
<feGaussianBlur stdDeviation="3.95"/>
<feComposite in2="hardAlpha" operator="arithmetic" k2="-1" k3="1"/>
<feColorMatrix type="matrix" values="0 0 0 0 0 0 0 0 0 0 0 0 0 0 0 0 0 0 0.5 0"/>
<feBlend mode="normal" in2="shape" result="effect2_innerShadow_30_305"/>
</filter>
</defs>
</svg>
