<svg width="51" height="52" viewBox="0 0 51 52" fill="none" xmlns="http://www.w3.org/2000/svg">
<g filter="url(#filter0_di_30_303)">
<path d="M24.7117 1.39768C25.0579 0.783761 25.9421 0.783758 26.2883 1.39767L33.2973 13.8243C33.9763 15.0283 34.9717 16.0237 36.1757 16.7027L48.6023 23.7117C49.2162 24.0579 49.2162 24.9421 48.6023 25.2883L36.1757 32.2973C34.9717 32.9763 33.9763 33.9717 33.2973 35.1757L26.2883 47.6023C25.9421 48.2162 25.0579 48.2162 24.7117 47.6023L17.7027 35.1757C17.0237 33.9717 16.0283 32.9763 14.8243 32.2973L2.39768 25.2883C1.78376 24.9421 1.78376 24.0579 2.39767 23.7117L14.8243 16.7027C16.0283 16.0237 17.0237 15.0283 17.7027 13.8243L24.7117 1.39768Z" fill="black"/>
</g>
<defs>
<filter id="filter0_di_30_303" x="0.247601" y="0.937256" width="50.5048" height="50.5048" filterUnits="userSpaceOnUse" color-interpolation-filters="sRGB">
<feFlood flood-opacity="0" result="BackgroundImageFix"/>
<feColorMatrix in="SourceAlpha" type="matrix" values="0 0 0 0 0 0 0 0 0 0 0 0 0 0 0 0 0 0 127 0" result="hardAlpha"/>
<feOffset dy="1.68966"/>
<feGaussianBlur stdDeviation="0.844828"/>
<feComposite in2="hardAlpha" operator="out"/>
<feColorMatrix type="matrix" values="0 0 0 0 0 0 0 0 0 0 0 0 0 0 0 0 0 0 0.25 0"/>
<feBlend mode="normal" in2="BackgroundImageFix" result="effect1_dropShadow_30_303"/>
<feBlend mode="normal" in="SourceGraphic" in2="effect1_dropShadow_30_303" result="shape"/>
<feColorMatrix in="SourceAlpha" type="matrix" values="0 0 0 0 0 0 0 0 0 0 0 0 0 0 0 0 0 0 127 0" result="hardAlpha"/>
<feOffset dx="0.844828" dy="0.422414"/>
<feGaussianBlur stdDeviation="5.04784"/>
<feComposite in2="hardAlpha" operator="arithmetic" k2="-1" k3="1"/>
<feColorMatrix type="matrix" values="0 0 0 0 1 0 0 0 0 1 0 0 0 0 1 0 0 0 1 0"/>
<feBlend mode="normal" in2="shape" result="effect2_innerShadow_30_303"/>
</filter>
</defs>
</svg>
