<svg width="1159" height="755" viewBox="0 0 1159 755" fill="none" xmlns="http://www.w3.org/2000/svg">
<rect width="1159" height="755" fill="#1E1E1E"/>
<g clip-path="url(#clip0_0_1)">
<rect width="1728" height="7589" transform="translate(-284 -4196)" fill="white"/>
<g filter="url(#filter0_d_0_1)">
<rect x="-109" y="-567" width="1377" height="419" rx="60" fill="url(#paint0_linear_0_1)"/>
</g>
<text fill="url(#paint1_linear_0_1)" xml:space="preserve" style="white-space: pre" font-family="Inter" font-size="213.596" font-weight="600" letter-spacing="-0.06em"><tspan x="10.4353" y="752.342">3</tspan></text>
<text fill="black" xml:space="preserve" style="white-space: pre" font-family="Inter" font-size="50" letter-spacing="-0.06em"><tspan x="165.156" y="736.364">Refine and Deploy</tspan></text>
<path fill-rule="evenodd" clip-rule="evenodd" d="M582.067 695.432C582.305 695.288 582.575 695.213 582.85 695.213C583.125 695.213 583.395 695.288 583.633 695.432L588.292 698.245C588.637 698.465 588.884 698.816 588.982 699.223C589.08 699.629 589.021 700.059 588.817 700.421C588.612 700.783 588.28 701.048 587.889 701.16C587.499 701.272 587.081 701.221 586.727 701.019L582.85 698.68L578.973 701.019C578.797 701.132 578.601 701.207 578.396 701.24C578.191 701.273 577.982 701.263 577.781 701.211C577.58 701.159 577.391 701.066 577.225 700.938C577.059 700.809 576.92 700.647 576.815 700.462C576.711 700.277 576.643 700.072 576.617 699.86C576.59 699.647 576.604 699.431 576.66 699.224C576.715 699.018 576.81 698.824 576.938 698.656C577.067 698.488 577.226 698.348 577.408 698.245L582.067 695.432ZM570.214 704.446C570.421 704.814 570.478 705.252 570.373 705.664C570.269 706.076 570.01 706.428 569.655 706.642L567.294 708.067L569.655 709.491C569.836 709.595 569.996 709.735 570.124 709.903C570.253 710.071 570.348 710.264 570.403 710.471C570.458 710.678 570.473 710.894 570.446 711.106C570.419 711.319 570.352 711.524 570.247 711.709C570.143 711.894 570.003 712.056 569.837 712.184C569.672 712.313 569.483 712.406 569.282 712.458C569.08 712.51 568.871 712.52 568.667 712.486C568.462 712.453 568.265 712.378 568.089 712.266L565.766 710.865V712.887C565.766 713.313 565.602 713.722 565.311 714.023C565.019 714.324 564.624 714.494 564.212 714.494C563.801 714.494 563.406 714.324 563.114 714.023C562.823 713.722 562.659 713.313 562.659 712.887V708.067C562.659 707.786 562.73 707.51 562.866 707.266C563.001 707.023 563.195 706.82 563.43 706.679L568.089 703.868C568.265 703.762 568.46 703.692 568.662 703.664C568.864 703.635 569.07 703.648 569.267 703.702C569.465 703.756 569.65 703.849 569.812 703.977C569.975 704.104 570.111 704.264 570.214 704.446ZM595.486 704.446C595.589 704.264 595.725 704.104 595.888 703.977C596.05 703.849 596.235 703.756 596.433 703.702C596.63 703.648 596.836 703.635 597.038 703.664C597.24 703.692 597.435 703.762 597.611 703.868L602.27 706.679C602.505 706.82 602.699 707.023 602.834 707.266C602.97 707.51 603.041 707.786 603.041 708.067V712.887C603.041 713.313 602.877 713.722 602.586 714.023C602.294 714.324 601.899 714.494 601.487 714.494C601.076 714.494 600.681 714.324 600.389 714.023C600.098 713.722 599.934 713.313 599.934 712.887V710.865L597.611 712.266C597.435 712.378 597.238 712.453 597.033 712.486C596.829 712.52 596.62 712.51 596.418 712.458C596.217 712.406 596.028 712.313 595.862 712.184C595.697 712.056 595.557 711.894 595.453 711.709C595.348 711.524 595.281 711.319 595.254 711.106C595.227 710.894 595.242 710.678 595.297 710.471C595.352 710.264 595.447 710.071 595.576 709.903C595.704 709.735 595.864 709.595 596.045 709.491L598.406 708.067L596.045 706.642C595.69 706.428 595.431 706.076 595.327 705.664C595.222 705.252 595.279 704.814 595.486 704.446ZM576.849 715.693C576.951 715.511 577.088 715.351 577.25 715.223C577.413 715.096 577.598 715.002 577.795 714.949C577.993 714.895 578.198 714.882 578.4 714.91C578.602 714.939 578.797 715.008 578.973 715.115L582.85 717.454L586.727 715.115C586.903 715.002 587.099 714.927 587.304 714.894C587.509 714.861 587.718 714.871 587.919 714.922C588.12 714.974 588.309 715.067 588.475 715.196C588.641 715.325 588.78 715.486 588.885 715.671C588.989 715.857 589.057 716.061 589.083 716.274C589.11 716.487 589.096 716.703 589.04 716.909C588.985 717.116 588.89 717.309 588.762 717.477C588.633 717.646 588.474 717.786 588.292 717.889L584.403 720.237V724.134C584.403 724.56 584.239 724.968 583.948 725.27C583.657 725.571 583.262 725.74 582.85 725.74C582.438 725.74 582.043 725.571 581.752 725.27C581.46 724.968 581.297 724.56 581.297 724.134V720.235L577.408 717.889C577.052 717.674 576.794 717.322 576.689 716.911C576.584 716.499 576.642 716.061 576.849 715.693ZM564.212 720.92C564.624 720.92 565.019 721.09 565.311 721.391C565.602 721.692 565.766 722.101 565.766 722.527V726.426L569.655 728.772C569.836 728.875 569.996 729.015 570.124 729.183C570.253 729.351 570.348 729.545 570.403 729.751C570.458 729.958 570.473 730.174 570.446 730.386C570.419 730.599 570.352 730.804 570.247 730.989C570.143 731.174 570.003 731.336 569.837 731.465C569.672 731.593 569.483 731.686 569.282 731.738C569.08 731.79 568.871 731.8 568.667 731.767C568.462 731.734 568.265 731.659 568.089 731.546L563.43 728.735C563.195 728.594 563.001 728.391 562.866 728.147C562.73 727.904 562.659 727.628 562.659 727.347V722.527C562.659 722.101 562.823 721.692 563.114 721.391C563.406 721.09 563.801 720.92 564.212 720.92ZM601.487 720.92C601.899 720.92 602.294 721.09 602.586 721.391C602.877 721.692 603.041 722.101 603.041 722.527V727.347C603.041 727.628 602.97 727.904 602.834 728.147C602.699 728.391 602.505 728.594 602.27 728.735L597.611 731.546C597.435 731.659 597.238 731.734 597.033 731.767C596.829 731.8 596.62 731.79 596.418 731.738C596.217 731.686 596.028 731.593 595.862 731.465C595.697 731.336 595.557 731.174 595.453 730.989C595.348 730.804 595.281 730.599 595.254 730.386C595.227 730.174 595.242 729.958 595.297 729.751C595.352 729.545 595.447 729.351 595.576 729.183C595.704 729.015 595.864 728.875 596.045 728.772L599.934 726.424V722.527C599.934 722.101 600.098 721.692 600.389 721.391C600.681 721.09 601.076 720.92 601.487 720.92ZM582.85 732.167C583.262 732.167 583.657 732.336 583.948 732.638C584.239 732.939 584.403 733.348 584.403 733.774V735.796L586.727 734.395C586.903 734.282 587.099 734.207 587.304 734.174C587.509 734.141 587.718 734.151 587.919 734.203C588.12 734.254 588.309 734.347 588.475 734.476C588.641 734.605 588.78 734.766 588.885 734.952C588.989 735.137 589.057 735.342 589.083 735.554C589.11 735.767 589.096 735.983 589.04 736.19C588.985 736.396 588.89 736.589 588.762 736.758C588.633 736.926 588.474 737.066 588.292 737.169L583.633 739.982C583.395 740.125 583.125 740.201 582.85 740.201C582.575 740.201 582.305 740.125 582.067 739.982L577.408 737.169C577.226 737.066 577.067 736.926 576.938 736.758C576.81 736.589 576.715 736.396 576.66 736.19C576.604 735.983 576.59 735.767 576.617 735.554C576.643 735.342 576.711 735.137 576.815 734.952C576.92 734.766 577.059 734.605 577.225 734.476C577.391 734.347 577.58 734.254 577.781 734.203C577.982 734.151 578.191 734.141 578.396 734.174C578.601 734.207 578.797 734.282 578.973 734.395L581.297 735.796V733.774C581.297 733.348 581.46 732.939 581.752 732.638C582.043 732.336 582.438 732.167 582.85 732.167Z" fill="black"/>
<text fill="black" xml:space="preserve" style="white-space: pre" font-family="Inter" font-size="50" letter-spacing="-0.06em"><tspan x="122.369" y="133.364">Configure Your Test</tspan></text>
<text fill="url(#paint2_linear_0_1)" xml:space="preserve" style="white-space: pre" font-family="Inter" font-size="199.816" font-weight="600" letter-spacing="-0.06em"><tspan x="0.497444" y="146.32">1</tspan></text>
<path d="M571.785 94.1783C572.017 92.7782 573.231 91.75 574.652 91.75H581.351C582.771 91.75 583.986 92.7782 584.218 94.1783L584.768 97.4876C584.931 98.4538 585.577 99.2597 586.435 99.7351C586.626 99.8384 586.814 99.9495 587.003 100.063C587.843 100.569 588.863 100.727 589.78 100.383L592.924 99.2055C593.568 98.9632 594.278 98.9574 594.926 99.1893C595.574 99.4211 596.119 99.8754 596.463 100.471L599.811 106.276C600.155 106.872 600.276 107.571 600.153 108.248C600.03 108.925 599.671 109.536 599.139 109.973L596.548 112.109C595.791 112.732 595.417 113.693 595.438 114.672C595.441 114.891 595.441 115.111 595.438 115.331C595.417 116.307 595.791 117.268 596.548 117.891L599.142 120.027C600.237 120.931 600.522 122.494 599.814 123.721L596.461 129.526C596.117 130.122 595.572 130.576 594.925 130.809C594.277 131.041 593.568 131.036 592.924 130.794L589.78 129.617C588.863 129.273 587.843 129.43 587 129.937C586.813 130.051 586.624 130.161 586.432 130.267C585.577 130.74 584.931 131.546 584.768 132.512L584.218 135.822C583.986 137.224 582.771 138.25 581.351 138.25H574.649C573.229 138.25 572.017 137.222 571.782 135.822L571.232 132.512C571.072 131.546 570.426 130.74 569.568 130.265C569.376 130.159 569.187 130.05 569 129.937C568.16 129.43 567.14 129.273 566.22 129.617L563.076 130.794C562.432 131.036 561.723 131.041 561.076 130.81C560.428 130.578 559.884 130.124 559.54 129.529L556.189 123.724C555.845 123.128 555.724 122.429 555.847 121.752C555.97 121.075 556.329 120.464 556.861 120.027L559.454 117.891C560.209 117.271 560.583 116.307 560.565 115.331C560.561 115.111 560.561 114.891 560.565 114.672C560.583 113.69 560.209 112.732 559.454 112.109L556.861 109.973C556.33 109.536 555.971 108.925 555.848 108.249C555.725 107.572 555.846 106.874 556.189 106.279L559.54 100.474C559.884 99.8775 560.428 99.4226 561.076 99.1904C561.725 98.9581 562.434 98.9634 563.079 99.2055L566.22 100.383C567.14 100.727 568.16 100.569 569 100.063C569.186 99.9495 569.377 99.841 569.568 99.7325C570.426 99.2598 571.072 98.4538 571.232 97.4876L571.785 94.1783Z" stroke="black" stroke-width="3.77167" stroke-linecap="round" stroke-linejoin="round"/>
<path d="M585.75 115C585.75 117.055 584.933 119.027 583.48 120.48C582.027 121.933 580.055 122.75 578 122.75C575.945 122.75 573.973 121.933 572.52 120.48C571.067 119.027 570.25 117.055 570.25 115C570.25 112.945 571.067 110.973 572.52 109.52C573.973 108.067 575.945 107.25 578 107.25C580.055 107.25 582.027 108.067 583.48 109.52C584.933 110.973 585.75 112.945 585.75 115Z" stroke="black" stroke-width="3.77167" stroke-linecap="round" stroke-linejoin="round"/>
<text fill="url(#paint3_linear_0_1)" xml:space="preserve" style="white-space: pre" font-family="Inter" font-size="213.596" font-weight="600" letter-spacing="-0.06em"><tspan x="1025.86" y="449.342">2</tspan></text>
<text fill="black" xml:space="preserve" style="white-space: pre" font-family="Inter" font-size="50" letter-spacing="-0.06em"><tspan x="570.286" y="443.364">Analyze the Results</tspan></text>
<path d="M518.656 427.563L540.094 404.594L535.5 421.438H552.344L530.906 444.406L535.5 427.563H518.656Z" stroke="black" stroke-width="2.59292" stroke-linecap="round" stroke-linejoin="round"/>
<path d="M59 149.613L56.1132 152.5L59 155.387L61.8868 152.5L59 149.613ZM1091 288.887L1093.89 286L1091 283.113L1088.11 286L1091 288.887ZM58.5 152.5V164.5H59.5V152.5H58.5ZM109 215H1041V214H109V215ZM1090.5 264.5V286H1091.5V264.5H1090.5ZM1041 215C1068.34 215 1090.5 237.162 1090.5 264.5H1091.5C1091.5 236.61 1068.89 214 1041 214V215ZM58.5 164.5C58.5 192.39 81.1096 215 109 215V214C81.6619 214 59.5 191.838 59.5 164.5H58.5Z" fill="url(#paint4_linear_0_1)"/>
<path d="M78 591.387L75.1132 588.5L78 585.613L80.8868 588.5L78 591.387ZM1091 448.113L1093.89 451L1091 453.887L1088.11 451L1091 448.113ZM77.5 588.5V571.469H78.5V588.5H77.5ZM128 520.969H1041V521.969H128V520.969ZM1090.5 471.469V451H1091.5V471.469H1090.5ZM1041 520.969C1068.34 520.969 1090.5 498.807 1090.5 471.469H1091.5C1091.5 499.36 1068.89 521.969 1041 521.969V520.969ZM77.5 571.469C77.5 543.579 100.11 520.969 128 520.969V521.969C100.662 521.969 78.5 544.131 78.5 571.469H77.5Z" fill="url(#paint5_linear_0_1)"/>
</g>
<defs>
<filter id="filter0_d_0_1" x="-329" y="-787" width="1877" height="919" filterUnits="userSpaceOnUse" color-interpolation-filters="sRGB">
<feFlood flood-opacity="0" result="BackgroundImageFix"/>
<feColorMatrix in="SourceAlpha" type="matrix" values="0 0 0 0 0 0 0 0 0 0 0 0 0 0 0 0 0 0 127 0" result="hardAlpha"/>
<feOffset dx="30" dy="30"/>
<feGaussianBlur stdDeviation="125"/>
<feComposite in2="hardAlpha" operator="out"/>
<feColorMatrix type="matrix" values="0 0 0 0 1 0 0 0 0 1 0 0 0 0 1 0 0 0 0.14 0"/>
<feBlend mode="normal" in2="BackgroundImageFix" result="effect1_dropShadow_0_1"/>
<feBlend mode="normal" in="SourceGraphic" in2="effect1_dropShadow_0_1" result="shape"/>
</filter>
<linearGradient id="paint0_linear_0_1" x1="-109" y1="-508.679" x2="67.941" y2="192.589" gradientUnits="userSpaceOnUse">
<stop/>
<stop offset="1"/>
</linearGradient>
<linearGradient id="paint1_linear_0_1" x1="80" y1="597" x2="80" y2="839" gradientUnits="userSpaceOnUse">
<stop stop-color="#CACACA"/>
<stop offset="1" stop-color="#DADADA" stop-opacity="0"/>
</linearGradient>
<linearGradient id="paint2_linear_0_1" x1="48.5" y1="1" x2="48.5" y2="227.387" gradientUnits="userSpaceOnUse">
<stop stop-color="#CACACA"/>
<stop offset="1" stop-color="#DADADA" stop-opacity="0"/>
</linearGradient>
<linearGradient id="paint3_linear_0_1" x1="1092.19" y1="294" x2="1092.19" y2="536" gradientUnits="userSpaceOnUse">
<stop stop-color="#CACACA"/>
<stop offset="1" stop-color="#DADADA" stop-opacity="0"/>
</linearGradient>
<linearGradient id="paint4_linear_0_1" x1="25.5" y1="135" x2="1182" y2="241.5" gradientUnits="userSpaceOnUse">
<stop stop-opacity="0"/>
<stop offset="0.487143" stop-color="white"/>
<stop offset="1" stop-opacity="0"/>
</linearGradient>
<linearGradient id="paint5_linear_0_1" x1="-9.00008" y1="576.999" x2="1131.57" y2="430.21" gradientUnits="userSpaceOnUse">
<stop stop-opacity="0"/>
<stop offset="0.487143" stop-color="white"/>
<stop offset="1" stop-opacity="0"/>
</linearGradient>
<clipPath id="clip0_0_1">
<rect width="1728" height="7589" fill="white" transform="translate(-284 -4196)"/>
</clipPath>
</defs>
</svg>
