<svg width="1159" height="755" viewBox="0 0 1159 755" fill="none" xmlns="http://www.w3.org/2000/svg">
<path d="M79.9905 754.124C69.068 754.124 59.3591 752.253 50.8638 748.511C42.4191 744.769 35.7442 739.56 30.8392 732.886C25.9342 726.211 23.33 718.499 23.0266 709.751H51.5465C51.7993 713.948 53.1899 717.614 55.7183 720.749C58.2466 723.834 61.6093 726.236 65.8064 727.955C70.0035 729.675 74.7063 730.534 79.9147 730.534C85.4771 730.534 90.4074 729.573 94.7056 727.652C99.0038 725.68 102.367 722.949 104.794 719.46C107.221 715.971 108.409 711.951 108.359 707.4C108.409 702.697 107.196 698.55 104.718 694.96C102.24 691.37 98.6498 688.563 93.9471 686.541C89.2949 684.518 83.6819 683.507 77.1082 683.507H63.3792V661.813H77.1082C82.5189 661.813 87.2469 660.878 91.2923 659.007C95.3882 657.136 98.5993 654.506 100.925 651.118C103.251 647.68 104.389 643.71 104.339 639.21C104.389 634.81 103.403 630.993 101.38 627.756C99.4083 624.469 96.6019 621.916 92.961 620.095C89.3707 618.275 85.1484 617.365 80.2939 617.365C75.5406 617.365 71.1413 618.224 67.0959 619.944C63.0505 621.663 59.7889 624.116 57.3111 627.301C54.8333 630.436 53.5186 634.178 53.3669 638.527H26.2881C26.4904 629.83 28.9935 622.194 33.7974 615.62C38.6518 608.996 45.1244 603.838 53.2152 600.147C61.3059 596.405 70.3828 594.534 80.4456 594.534C90.8119 594.534 99.8129 596.481 107.449 600.374C115.135 604.217 121.076 609.4 125.273 615.924C129.471 622.447 131.569 629.653 131.569 637.541C131.62 646.289 129.041 653.621 123.832 659.538C118.674 665.454 111.898 669.323 103.504 671.143V672.357C114.427 673.874 122.796 677.919 128.611 684.493C134.477 691.016 137.384 699.132 137.334 708.841C137.334 717.538 134.856 725.326 129.9 732.203C124.995 739.03 118.219 744.39 109.572 748.283C100.976 752.177 91.1153 754.124 79.9905 754.124Z" fill="url(#paint0_linear_80_100)"/>
<path d="M169.56 736V699.636H181.847C184.688 699.636 187.019 700.122 188.842 701.092C190.665 702.051 192.015 703.371 192.891 705.052C193.767 706.733 194.205 708.644 194.205 710.787C194.205 712.929 193.767 714.829 192.891 716.487C192.015 718.144 190.671 719.446 188.86 720.393C187.049 721.328 184.735 721.795 181.918 721.795H171.974V717.818H181.776C183.717 717.818 185.279 717.534 186.463 716.966C187.659 716.398 188.523 715.593 189.055 714.551C189.6 713.498 189.872 712.243 189.872 710.787C189.872 709.331 189.6 708.058 189.055 706.969C188.511 705.88 187.641 705.04 186.445 704.448C185.25 703.844 183.67 703.543 181.705 703.543H173.963V736H169.56ZM186.676 719.665L195.625 736H190.511L181.705 719.665H186.676ZM209.116 736.568C206.488 736.568 204.221 735.988 202.315 734.828C200.421 733.656 198.959 732.023 197.93 729.928C196.912 727.821 196.403 725.37 196.403 722.577C196.403 719.783 196.912 717.321 197.93 715.19C198.959 713.048 200.392 711.379 202.226 710.183C204.073 708.976 206.227 708.372 208.689 708.372C210.11 708.372 211.513 708.609 212.898 709.082C214.282 709.556 215.543 710.325 216.68 711.391C217.816 712.444 218.721 713.841 219.396 715.581C220.071 717.321 220.408 719.464 220.408 722.009V723.784H199.385V720.162H216.147C216.147 718.623 215.839 717.25 215.224 716.043C214.62 714.835 213.756 713.882 212.631 713.184C211.519 712.486 210.205 712.136 208.689 712.136C207.02 712.136 205.576 712.551 204.357 713.379C203.15 714.196 202.22 715.261 201.569 716.575C200.918 717.889 200.593 719.298 200.593 720.801V723.216C200.593 725.276 200.948 727.022 201.658 728.454C202.38 729.874 203.381 730.957 204.659 731.703C205.937 732.437 207.423 732.804 209.116 732.804C210.216 732.804 211.211 732.65 212.099 732.342C212.998 732.023 213.773 731.549 214.425 730.922C215.076 730.283 215.579 729.49 215.934 728.543L219.982 729.679C219.556 731.052 218.84 732.259 217.834 733.301C216.827 734.331 215.585 735.136 214.105 735.716C212.625 736.284 210.962 736.568 209.116 736.568ZM235.927 708.727V712.278H221.226V708.727H235.927ZM225.629 736V704.963C225.629 703.401 225.996 702.098 226.73 701.057C227.464 700.015 228.417 699.234 229.589 698.713C230.76 698.192 231.997 697.932 233.3 697.932C234.329 697.932 235.17 698.015 235.821 698.18C236.472 698.346 236.957 698.5 237.277 698.642L236.069 702.264C235.856 702.193 235.56 702.104 235.182 701.998C234.815 701.891 234.329 701.838 233.726 701.838C232.341 701.838 231.34 702.187 230.725 702.886C230.121 703.584 229.819 704.608 229.819 705.957V736H225.629ZM238.8 736V708.727H242.99V736H238.8ZM240.931 704.182C240.114 704.182 239.41 703.904 238.818 703.347C238.238 702.791 237.948 702.122 237.948 701.341C237.948 700.56 238.238 699.891 238.818 699.335C239.41 698.778 240.114 698.5 240.931 698.5C241.748 698.5 242.446 698.778 243.026 699.335C243.618 699.891 243.914 700.56 243.914 701.341C243.914 702.122 243.618 702.791 243.026 703.347C242.446 703.904 241.748 704.182 240.931 704.182ZM251.856 719.594V736H247.665V708.727H251.714V712.989H252.069C252.708 711.604 253.679 710.491 254.981 709.651C256.283 708.798 257.964 708.372 260.023 708.372C261.87 708.372 263.486 708.751 264.871 709.509C266.256 710.254 267.333 711.391 268.102 712.918C268.872 714.433 269.256 716.35 269.256 718.67V736H265.066V718.955C265.066 716.812 264.51 715.143 263.397 713.947C262.284 712.74 260.757 712.136 258.816 712.136C257.478 712.136 256.283 712.426 255.229 713.006C254.188 713.586 253.365 714.433 252.761 715.545C252.157 716.658 251.856 718.008 251.856 719.594ZM285.348 736.568C282.72 736.568 280.453 735.988 278.548 734.828C276.654 733.656 275.192 732.023 274.162 729.928C273.144 727.821 272.635 725.37 272.635 722.577C272.635 719.783 273.144 717.321 274.162 715.19C275.192 713.048 276.624 711.379 278.459 710.183C280.305 708.976 282.46 708.372 284.922 708.372C286.342 708.372 287.745 708.609 289.13 709.082C290.515 709.556 291.776 710.325 292.912 711.391C294.048 712.444 294.954 713.841 295.629 715.581C296.303 717.321 296.641 719.464 296.641 722.009V723.784H275.618V720.162H292.379C292.379 718.623 292.071 717.25 291.456 716.043C290.852 714.835 289.988 713.882 288.864 713.184C287.751 712.486 286.437 712.136 284.922 712.136C283.253 712.136 281.809 712.551 280.589 713.379C279.382 714.196 278.453 715.261 277.802 716.575C277.151 717.889 276.825 719.298 276.825 720.801V723.216C276.825 725.276 277.18 727.022 277.891 728.454C278.613 729.874 279.613 730.957 280.891 731.703C282.17 732.437 283.655 732.804 285.348 732.804C286.449 732.804 287.443 732.65 288.331 732.342C289.231 732.023 290.006 731.549 290.657 730.922C291.308 730.283 291.811 729.49 292.166 728.543L296.214 729.679C295.788 731.052 295.072 732.259 294.066 733.301C293.06 734.331 291.817 735.136 290.337 735.716C288.858 736.284 287.195 736.568 285.348 736.568ZM319.103 736.639C317.375 736.639 315.806 736.314 314.398 735.663C312.989 735 311.871 734.047 311.042 732.804C310.213 731.549 309.799 730.034 309.799 728.259C309.799 726.696 310.107 725.429 310.722 724.459C311.338 723.476 312.161 722.707 313.19 722.151C314.22 721.594 315.357 721.18 316.599 720.908C317.854 720.624 319.115 720.399 320.381 720.233C322.039 720.02 323.382 719.86 324.412 719.754C325.454 719.635 326.211 719.44 326.685 719.168C327.17 718.895 327.413 718.422 327.413 717.747V717.605C327.413 715.853 326.933 714.492 325.974 713.521C325.027 712.551 323.589 712.065 321.66 712.065C319.659 712.065 318.091 712.503 316.955 713.379C315.818 714.255 315.019 715.19 314.558 716.185L310.58 714.764C311.29 713.107 312.237 711.817 313.421 710.893C314.617 709.958 315.919 709.307 317.327 708.94C318.748 708.562 320.145 708.372 321.518 708.372C322.394 708.372 323.4 708.479 324.536 708.692C325.684 708.893 326.791 709.313 327.857 709.952C328.934 710.592 329.827 711.556 330.538 712.847C331.248 714.137 331.603 715.865 331.603 718.031V736H327.413V732.307H327.2C326.915 732.899 326.442 733.532 325.779 734.207C325.116 734.881 324.234 735.455 323.134 735.929C322.033 736.402 320.689 736.639 319.103 736.639ZM319.742 732.875C321.399 732.875 322.796 732.549 323.933 731.898C325.081 731.247 325.945 730.407 326.525 729.377C327.117 728.347 327.413 727.264 327.413 726.128V722.293C327.235 722.506 326.844 722.701 326.241 722.879C325.649 723.044 324.962 723.192 324.181 723.322C323.412 723.441 322.66 723.547 321.926 723.642C321.204 723.725 320.618 723.796 320.168 723.855C319.079 723.997 318.061 724.228 317.114 724.548C316.179 724.855 315.422 725.323 314.842 725.95C314.273 726.566 313.989 727.406 313.989 728.472C313.989 729.928 314.528 731.028 315.605 731.774C316.694 732.508 318.073 732.875 319.742 732.875ZM340.442 719.594V736H336.251V708.727H340.3V712.989H340.655C341.294 711.604 342.265 710.491 343.567 709.651C344.869 708.798 346.55 708.372 348.609 708.372C350.456 708.372 352.072 708.751 353.456 709.509C354.841 710.254 355.919 711.391 356.688 712.918C357.457 714.433 357.842 716.35 357.842 718.67V736H353.652V718.955C353.652 716.812 353.095 715.143 351.983 713.947C350.87 712.74 349.343 712.136 347.402 712.136C346.064 712.136 344.869 712.426 343.815 713.006C342.773 713.586 341.951 714.433 341.347 715.545C340.743 716.658 340.442 718.008 340.442 719.594ZM372.798 736.568C370.525 736.568 368.518 735.994 366.778 734.846C365.038 733.686 363.677 732.052 362.695 729.945C361.712 727.826 361.221 725.323 361.221 722.435C361.221 719.57 361.712 717.084 362.695 714.977C363.677 712.87 365.044 711.243 366.796 710.094C368.548 708.946 370.572 708.372 372.869 708.372C374.644 708.372 376.047 708.668 377.077 709.26C378.118 709.84 378.911 710.503 379.456 711.249C380.012 711.982 380.444 712.586 380.752 713.06H381.107V699.636H385.298V736H381.249V731.81H380.752C380.444 732.307 380.006 732.934 379.438 733.692C378.87 734.437 378.059 735.106 377.006 735.698C375.952 736.278 374.549 736.568 372.798 736.568ZM373.366 732.804C375.047 732.804 376.467 732.366 377.627 731.49C378.787 730.602 379.669 729.377 380.273 727.815C380.876 726.24 381.178 724.423 381.178 722.364C381.178 720.328 380.882 718.546 380.29 717.019C379.699 715.48 378.823 714.285 377.663 713.433C376.503 712.568 375.07 712.136 373.366 712.136C371.59 712.136 370.111 712.592 368.927 713.504C367.755 714.403 366.873 715.628 366.281 717.179C365.701 718.718 365.411 720.446 365.411 722.364C365.411 724.305 365.707 726.069 366.299 727.655C366.903 729.229 367.79 730.484 368.962 731.419C370.146 732.342 371.614 732.804 373.366 732.804ZM413.406 736H402.185V699.636H413.903C417.431 699.636 420.449 700.364 422.959 701.82C425.468 703.264 427.392 705.342 428.729 708.053C430.067 710.751 430.736 713.983 430.736 717.747C430.736 721.535 430.061 724.796 428.712 727.531C427.362 730.253 425.397 732.348 422.817 733.816C420.236 735.272 417.099 736 413.406 736ZM406.588 732.094H413.122C416.129 732.094 418.621 731.514 420.597 730.354C422.574 729.194 424.048 727.542 425.018 725.4C425.989 723.257 426.474 720.706 426.474 717.747C426.474 714.812 425.995 712.284 425.036 710.165C424.077 708.035 422.645 706.401 420.739 705.265C418.834 704.117 416.46 703.543 413.619 703.543H406.588V732.094ZM445.989 736.568C443.361 736.568 441.094 735.988 439.188 734.828C437.294 733.656 435.832 732.023 434.803 729.928C433.785 727.821 433.276 725.37 433.276 722.577C433.276 719.783 433.785 717.321 434.803 715.19C435.832 713.048 437.265 711.379 439.099 710.183C440.946 708.976 443.1 708.372 445.562 708.372C446.983 708.372 448.386 708.609 449.771 709.082C451.156 709.556 452.416 710.325 453.553 711.391C454.689 712.444 455.594 713.841 456.269 715.581C456.944 717.321 457.281 719.464 457.281 722.009V723.784H436.259V720.162H453.02C453.02 718.623 452.712 717.25 452.097 716.043C451.493 714.835 450.629 713.882 449.504 713.184C448.392 712.486 447.078 712.136 445.562 712.136C443.893 712.136 442.449 712.551 441.23 713.379C440.023 714.196 439.094 715.261 438.442 716.575C437.791 717.889 437.466 719.298 437.466 720.801V723.216C437.466 725.276 437.821 727.022 438.531 728.454C439.253 729.874 440.254 730.957 441.532 731.703C442.81 732.437 444.296 732.804 445.989 732.804C447.089 732.804 448.084 732.65 448.972 732.342C449.871 732.023 450.647 731.549 451.298 730.922C451.949 730.283 452.452 729.49 452.807 728.543L456.855 729.679C456.429 731.052 455.713 732.259 454.707 733.301C453.701 734.331 452.458 735.136 450.978 735.716C449.498 736.284 447.835 736.568 445.989 736.568ZM460.656 746.227V708.727H464.704V713.06H465.201C465.509 712.586 465.935 711.982 466.479 711.249C467.036 710.503 467.829 709.84 468.859 709.26C469.9 708.668 471.309 708.372 473.085 708.372C475.381 708.372 477.405 708.946 479.157 710.094C480.909 711.243 482.276 712.87 483.259 714.977C484.241 717.084 484.732 719.57 484.732 722.435C484.732 725.323 484.241 727.826 483.259 729.945C482.276 732.052 480.915 733.686 479.175 734.846C477.435 735.994 475.428 736.568 473.156 736.568C471.404 736.568 470.001 736.278 468.947 735.698C467.894 735.106 467.083 734.437 466.515 733.692C465.947 732.934 465.509 732.307 465.201 731.81H464.846V746.227H460.656ZM464.775 722.364C464.775 724.423 465.077 726.24 465.68 727.815C466.284 729.377 467.166 730.602 468.326 731.49C469.486 732.366 470.906 732.804 472.587 732.804C474.339 732.804 475.801 732.342 476.973 731.419C478.157 730.484 479.045 729.229 479.636 727.655C480.24 726.069 480.542 724.305 480.542 722.364C480.542 720.446 480.246 718.718 479.654 717.179C479.074 715.628 478.192 714.403 477.009 713.504C475.837 712.592 474.363 712.136 472.587 712.136C470.883 712.136 469.451 712.568 468.29 713.433C467.13 714.285 466.254 715.48 465.663 717.019C465.071 718.546 464.775 720.328 464.775 722.364ZM492.315 699.636V736H488.124V699.636H492.315ZM508.069 736.568C505.607 736.568 503.447 735.982 501.588 734.81C499.742 733.638 498.298 731.999 497.256 729.892C496.226 727.785 495.711 725.323 495.711 722.506C495.711 719.665 496.226 717.185 497.256 715.066C498.298 712.947 499.742 711.302 501.588 710.13C503.447 708.958 505.607 708.372 508.069 708.372C510.531 708.372 512.686 708.958 514.532 710.13C516.391 711.302 517.835 712.947 518.865 715.066C519.906 717.185 520.427 719.665 520.427 722.506C520.427 725.323 519.906 727.785 518.865 729.892C517.835 731.999 516.391 733.638 514.532 734.81C512.686 735.982 510.531 736.568 508.069 736.568ZM508.069 732.804C509.939 732.804 511.478 732.325 512.686 731.366C513.893 730.407 514.787 729.146 515.367 727.584C515.947 726.021 516.237 724.329 516.237 722.506C516.237 720.683 515.947 718.984 515.367 717.41C514.787 715.835 513.893 714.563 512.686 713.592C511.478 712.622 509.939 712.136 508.069 712.136C506.199 712.136 504.66 712.622 503.453 713.592C502.245 714.563 501.352 715.835 500.771 717.41C500.191 718.984 499.901 720.683 499.901 722.506C499.901 724.329 500.191 726.021 500.771 727.584C501.352 729.146 502.245 730.407 503.453 731.366C504.66 732.325 506.199 732.804 508.069 732.804ZM525.546 746.227C524.836 746.227 524.202 746.168 523.646 746.05C523.09 745.943 522.705 745.837 522.492 745.73L523.557 742.037C524.575 742.297 525.475 742.392 526.256 742.321C527.037 742.25 527.73 741.901 528.333 741.273C528.949 740.658 529.511 739.658 530.02 738.273L530.801 736.142L520.716 708.727H525.262L532.79 730.46H533.074L540.603 708.727H545.148L533.571 739.977C533.051 741.386 532.405 742.552 531.636 743.475C530.867 744.41 529.973 745.103 528.955 745.553C527.949 746.002 526.812 746.227 525.546 746.227Z" fill="black"/>
<path fill-rule="evenodd" clip-rule="evenodd" d="M582.067 695.432C582.305 695.288 582.575 695.213 582.85 695.213C583.125 695.213 583.395 695.288 583.633 695.432L588.292 698.245C588.637 698.465 588.884 698.816 588.982 699.223C589.08 699.629 589.021 700.059 588.817 700.421C588.612 700.783 588.28 701.048 587.889 701.16C587.499 701.272 587.081 701.221 586.727 701.019L582.85 698.68L578.973 701.019C578.797 701.132 578.601 701.207 578.396 701.24C578.191 701.273 577.982 701.263 577.781 701.211C577.58 701.159 577.391 701.066 577.225 700.938C577.059 700.809 576.92 700.647 576.815 700.462C576.711 700.277 576.643 700.072 576.617 699.86C576.59 699.647 576.604 699.431 576.66 699.224C576.715 699.018 576.81 698.824 576.938 698.656C577.067 698.488 577.226 698.348 577.408 698.245L582.067 695.432ZM570.214 704.446C570.421 704.814 570.478 705.252 570.373 705.664C570.269 706.076 570.01 706.428 569.655 706.642L567.294 708.067L569.655 709.491C569.836 709.595 569.996 709.735 570.124 709.903C570.253 710.071 570.348 710.264 570.403 710.471C570.458 710.678 570.473 710.894 570.446 711.106C570.419 711.319 570.352 711.524 570.247 711.709C570.143 711.894 570.003 712.056 569.837 712.184C569.672 712.313 569.483 712.406 569.282 712.458C569.08 712.51 568.871 712.52 568.667 712.486C568.462 712.453 568.265 712.378 568.089 712.266L565.766 710.865V712.887C565.766 713.313 565.602 713.722 565.311 714.023C565.019 714.324 564.624 714.494 564.212 714.494C563.801 714.494 563.406 714.324 563.114 714.023C562.823 713.722 562.659 713.313 562.659 712.887V708.067C562.659 707.786 562.73 707.51 562.866 707.266C563.001 707.023 563.195 706.82 563.43 706.679L568.089 703.868C568.265 703.762 568.46 703.692 568.662 703.664C568.864 703.635 569.07 703.648 569.267 703.702C569.465 703.756 569.65 703.849 569.812 703.977C569.975 704.104 570.111 704.264 570.214 704.446ZM595.486 704.446C595.589 704.264 595.725 704.104 595.888 703.977C596.05 703.849 596.235 703.756 596.433 703.702C596.63 703.648 596.836 703.635 597.038 703.664C597.24 703.692 597.435 703.762 597.611 703.868L602.27 706.679C602.505 706.82 602.699 707.023 602.834 707.266C602.97 707.51 603.041 707.786 603.041 708.067V712.887C603.041 713.313 602.877 713.722 602.586 714.023C602.294 714.324 601.899 714.494 601.487 714.494C601.076 714.494 600.681 714.324 600.389 714.023C600.098 713.722 599.934 713.313 599.934 712.887V710.865L597.611 712.266C597.435 712.378 597.238 712.453 597.033 712.486C596.829 712.52 596.62 712.51 596.418 712.458C596.217 712.406 596.028 712.313 595.862 712.184C595.697 712.056 595.557 711.894 595.453 711.709C595.348 711.524 595.281 711.319 595.254 711.106C595.227 710.894 595.242 710.678 595.297 710.471C595.352 710.264 595.447 710.071 595.576 709.903C595.704 709.735 595.864 709.595 596.045 709.491L598.406 708.067L596.045 706.642C595.69 706.428 595.431 706.076 595.327 705.664C595.222 705.252 595.279 704.814 595.486 704.446ZM576.849 715.693C576.951 715.511 577.088 715.351 577.25 715.223C577.413 715.096 577.598 715.002 577.795 714.949C577.993 714.895 578.198 714.882 578.4 714.91C578.602 714.939 578.797 715.008 578.973 715.115L582.85 717.454L586.727 715.115C586.903 715.002 587.099 714.927 587.304 714.894C587.509 714.861 587.718 714.871 587.919 714.922C588.12 714.974 588.309 715.067 588.475 715.196C588.641 715.325 588.78 715.486 588.885 715.671C588.989 715.857 589.057 716.061 589.083 716.274C589.11 716.487 589.096 716.703 589.04 716.909C588.985 717.116 588.89 717.309 588.762 717.477C588.633 717.646 588.474 717.786 588.292 717.889L584.403 720.237V724.134C584.403 724.56 584.239 724.968 583.948 725.27C583.657 725.571 583.262 725.74 582.85 725.74C582.438 725.74 582.043 725.571 581.752 725.27C581.46 724.968 581.297 724.56 581.297 724.134V720.235L577.408 717.889C577.052 717.674 576.794 717.322 576.689 716.911C576.584 716.499 576.642 716.061 576.849 715.693ZM564.212 720.92C564.624 720.92 565.019 721.09 565.311 721.391C565.602 721.692 565.766 722.101 565.766 722.527V726.426L569.655 728.772C569.836 728.875 569.996 729.015 570.124 729.183C570.253 729.351 570.348 729.545 570.403 729.751C570.458 729.958 570.473 730.174 570.446 730.386C570.419 730.599 570.352 730.804 570.247 730.989C570.143 731.174 570.003 731.336 569.837 731.465C569.672 731.593 569.483 731.686 569.282 731.738C569.08 731.79 568.871 731.8 568.667 731.767C568.462 731.734 568.265 731.659 568.089 731.546L563.43 728.735C563.195 728.594 563.001 728.391 562.866 728.147C562.73 727.904 562.659 727.628 562.659 727.347V722.527C562.659 722.101 562.823 721.692 563.114 721.391C563.406 721.09 563.801 720.92 564.212 720.92ZM601.487 720.92C601.899 720.92 602.294 721.09 602.586 721.391C602.877 721.692 603.041 722.101 603.041 722.527V727.347C603.041 727.628 602.97 727.904 602.834 728.147C602.699 728.391 602.505 728.594 602.27 728.735L597.611 731.546C597.435 731.659 597.238 731.734 597.033 731.767C596.829 731.8 596.62 731.79 596.418 731.738C596.217 731.686 596.028 731.593 595.862 731.465C595.697 731.336 595.557 731.174 595.453 730.989C595.348 730.804 595.281 730.599 595.254 730.386C595.227 730.174 595.242 729.958 595.297 729.751C595.352 729.545 595.447 729.351 595.576 729.183C595.704 729.015 595.864 728.875 596.045 728.772L599.934 726.424V722.527C599.934 722.101 600.098 721.692 600.389 721.391C600.681 721.09 601.076 720.92 601.487 720.92ZM582.85 732.167C583.262 732.167 583.657 732.336 583.948 732.638C584.239 732.939 584.403 733.348 584.403 733.774V735.796L586.727 734.395C586.903 734.282 587.099 734.207 587.304 734.174C587.509 734.141 587.718 734.151 587.919 734.203C588.12 734.254 588.309 734.347 588.475 734.476C588.641 734.605 588.78 734.766 588.885 734.952C588.989 735.137 589.057 735.342 589.083 735.554C589.11 735.767 589.096 735.983 589.04 736.19C588.985 736.396 588.89 736.589 588.762 736.758C588.633 736.926 588.474 737.066 588.292 737.169L583.633 739.982C583.395 740.125 583.125 740.201 582.85 740.201C582.575 740.201 582.305 740.125 582.067 739.982L577.408 737.169C577.226 737.066 577.067 736.926 576.938 736.758C576.81 736.589 576.715 736.396 576.66 736.19C576.604 735.983 576.59 735.767 576.617 735.554C576.643 735.342 576.711 735.137 576.815 734.952C576.92 734.766 577.059 734.605 577.225 734.476C577.391 734.347 577.58 734.254 577.781 734.203C577.982 734.151 578.191 734.141 578.396 734.174C578.601 734.207 578.797 734.282 578.973 734.395L581.297 735.796V733.774C581.297 733.348 581.46 732.939 581.752 732.638C582.043 732.336 582.438 732.167 582.85 732.167Z" fill="black"/>
<path d="M156.034 108H151.631C151.37 106.733 150.914 105.621 150.263 104.662C149.624 103.703 148.843 102.898 147.92 102.247C147.008 101.584 145.996 101.087 144.883 100.756C143.771 100.424 142.611 100.259 141.403 100.259C139.202 100.259 137.207 100.815 135.42 101.928C133.644 103.04 132.229 104.68 131.176 106.846C130.134 109.012 129.613 111.67 129.613 114.818C129.613 117.967 130.134 120.624 131.176 122.79C132.229 124.957 133.644 126.596 135.42 127.709C137.207 128.821 139.202 129.378 141.403 129.378C142.611 129.378 143.771 129.212 144.883 128.881C145.996 128.549 147.008 128.058 147.92 127.407C148.843 126.744 149.624 125.933 150.263 124.974C150.914 124.004 151.37 122.891 151.631 121.636H156.034C155.702 123.495 155.099 125.158 154.223 126.626C153.347 128.094 152.258 129.342 150.956 130.372C149.654 131.39 148.192 132.165 146.57 132.698C144.96 133.231 143.238 133.497 141.403 133.497C138.302 133.497 135.544 132.74 133.129 131.224C130.714 129.709 128.814 127.555 127.43 124.761C126.045 121.968 125.352 118.653 125.352 114.818C125.352 110.983 126.045 107.669 127.43 104.875C128.814 102.081 130.714 99.9271 133.129 98.4119C135.544 96.8968 138.302 96.1392 141.403 96.1392C143.238 96.1392 144.96 96.4055 146.57 96.9382C148.192 97.4709 149.654 98.2521 150.956 99.282C152.258 100.3 153.347 101.543 154.223 103.011C155.099 104.467 155.702 106.13 156.034 108ZM170.661 133.568C168.199 133.568 166.038 132.982 164.18 131.81C162.333 130.638 160.889 128.999 159.848 126.892C158.818 124.785 158.303 122.323 158.303 119.506C158.303 116.665 158.818 114.185 159.848 112.066C160.889 109.947 162.333 108.302 164.18 107.13C166.038 105.958 168.199 105.372 170.661 105.372C173.123 105.372 175.277 105.958 177.124 107.13C178.982 108.302 180.426 109.947 181.456 112.066C182.498 114.185 183.019 116.665 183.019 119.506C183.019 122.323 182.498 124.785 181.456 126.892C180.426 128.999 178.982 130.638 177.124 131.81C175.277 132.982 173.123 133.568 170.661 133.568ZM170.661 129.804C172.531 129.804 174.07 129.325 175.277 128.366C176.485 127.407 177.378 126.146 177.958 124.584C178.538 123.021 178.828 121.329 178.828 119.506C178.828 117.683 178.538 115.984 177.958 114.41C177.378 112.835 176.485 111.563 175.277 110.592C174.07 109.622 172.531 109.136 170.661 109.136C168.791 109.136 167.252 109.622 166.044 110.592C164.837 111.563 163.943 112.835 163.363 114.41C162.783 115.984 162.493 117.683 162.493 119.506C162.493 121.329 162.783 123.021 163.363 124.584C163.943 126.146 164.837 127.407 166.044 128.366C167.252 129.325 168.791 129.804 170.661 129.804ZM190.606 116.594V133H186.415V105.727H190.464V109.989H190.819C191.458 108.604 192.429 107.491 193.731 106.651C195.033 105.798 196.714 105.372 198.773 105.372C200.62 105.372 202.236 105.751 203.621 106.509C205.006 107.254 206.083 108.391 206.852 109.918C207.622 111.433 208.006 113.35 208.006 115.67V133H203.816V115.955C203.816 113.812 203.26 112.143 202.147 110.947C201.034 109.74 199.507 109.136 197.566 109.136C196.228 109.136 195.033 109.426 193.979 110.006C192.938 110.586 192.115 111.433 191.511 112.545C190.907 113.658 190.606 115.008 190.606 116.594ZM224.808 105.727V109.278H210.107V105.727H224.808ZM214.51 133V101.963C214.51 100.401 214.877 99.0985 215.611 98.0568C216.345 97.0151 217.298 96.2339 218.469 95.7131C219.641 95.1922 220.878 94.9318 222.18 94.9318C223.21 94.9318 224.051 95.0147 224.702 95.1804C225.353 95.3461 225.838 95.5 226.158 95.642L224.95 99.2642C224.737 99.1932 224.441 99.1044 224.062 98.9979C223.696 98.8913 223.21 98.8381 222.607 98.8381C221.222 98.8381 220.221 99.1873 219.606 99.8857C219.002 100.584 218.7 101.608 218.7 102.957V133H214.51ZM227.681 133V105.727H231.871V133H227.681ZM229.812 101.182C228.995 101.182 228.291 100.904 227.699 100.347C227.119 99.791 226.829 99.1222 226.829 98.3409C226.829 97.5597 227.119 96.8909 227.699 96.3345C228.291 95.7782 228.995 95.5 229.812 95.5C230.628 95.5 231.327 95.7782 231.907 96.3345C232.499 96.8909 232.795 97.5597 232.795 98.3409C232.795 99.1222 232.499 99.791 231.907 100.347C231.327 100.904 230.628 101.182 229.812 101.182ZM247.555 143.795C245.531 143.795 243.79 143.535 242.335 143.014C240.879 142.505 239.665 141.83 238.695 140.99C237.736 140.161 236.972 139.274 236.404 138.327L239.742 135.983C240.121 136.48 240.6 137.048 241.18 137.688C241.76 138.339 242.554 138.901 243.56 139.374C244.578 139.86 245.909 140.102 247.555 140.102C249.756 140.102 251.573 139.57 253.006 138.504C254.438 137.439 255.154 135.77 255.154 133.497V127.957H254.799C254.491 128.455 254.053 129.07 253.485 129.804C252.929 130.526 252.124 131.171 251.07 131.739C250.029 132.296 248.62 132.574 246.844 132.574C244.643 132.574 242.666 132.053 240.914 131.011C239.174 129.97 237.795 128.455 236.777 126.466C235.771 124.477 235.268 122.062 235.268 119.222C235.268 116.428 235.759 113.996 236.741 111.924C237.724 109.841 239.091 108.231 240.843 107.094C242.595 105.946 244.619 105.372 246.915 105.372C248.691 105.372 250.1 105.668 251.141 106.26C252.195 106.84 253 107.503 253.556 108.249C254.124 108.982 254.562 109.586 254.87 110.06H255.296V105.727H259.344V133.781C259.344 136.125 258.812 138.031 257.746 139.499C256.693 140.978 255.272 142.061 253.485 142.748C251.71 143.446 249.733 143.795 247.555 143.795ZM247.413 128.81C249.094 128.81 250.514 128.425 251.674 127.656C252.834 126.886 253.716 125.779 254.32 124.335C254.923 122.891 255.225 121.163 255.225 119.151C255.225 117.186 254.929 115.451 254.337 113.948C253.746 112.445 252.87 111.267 251.71 110.415C250.549 109.562 249.117 109.136 247.413 109.136C245.637 109.136 244.157 109.586 242.974 110.486C241.802 111.385 240.92 112.593 240.328 114.108C239.748 115.623 239.458 117.304 239.458 119.151C239.458 121.045 239.754 122.719 240.346 124.175C240.95 125.62 241.837 126.756 243.009 127.585C244.193 128.401 245.661 128.81 247.413 128.81ZM281.202 121.849V105.727H285.393V133H281.202V128.384H280.918C280.279 129.768 279.285 130.946 277.935 131.917C276.586 132.876 274.881 133.355 272.822 133.355C271.117 133.355 269.602 132.982 268.276 132.237C266.951 131.479 265.909 130.343 265.151 128.827C264.394 127.3 264.015 125.377 264.015 123.057V105.727H268.205V122.773C268.205 124.761 268.762 126.348 269.874 127.531C270.999 128.715 272.431 129.307 274.171 129.307C275.213 129.307 276.272 129.04 277.349 128.508C278.438 127.975 279.35 127.158 280.084 126.058C280.83 124.957 281.202 123.554 281.202 121.849ZM290.068 133V105.727H294.116V109.847H294.4C294.897 108.497 295.797 107.402 297.099 106.562C298.401 105.721 299.869 105.301 301.502 105.301C301.81 105.301 302.195 105.307 302.656 105.319C303.118 105.331 303.467 105.348 303.704 105.372V109.634C303.562 109.598 303.236 109.545 302.727 109.474C302.23 109.391 301.704 109.349 301.147 109.349C299.821 109.349 298.638 109.628 297.596 110.184C296.566 110.728 295.749 111.486 295.146 112.457C294.554 113.415 294.258 114.51 294.258 115.741V133H290.068ZM316.276 133.568C313.648 133.568 311.381 132.988 309.475 131.828C307.581 130.656 306.119 129.023 305.09 126.928C304.072 124.821 303.563 122.37 303.563 119.577C303.563 116.783 304.072 114.321 305.09 112.19C306.119 110.048 307.552 108.379 309.387 107.183C311.233 105.976 313.387 105.372 315.85 105.372C317.27 105.372 318.673 105.609 320.058 106.082C321.443 106.556 322.703 107.325 323.84 108.391C324.976 109.444 325.882 110.841 326.556 112.581C327.231 114.321 327.568 116.464 327.568 119.009V120.784H306.546V117.162H323.307C323.307 115.623 322.999 114.25 322.384 113.043C321.78 111.835 320.916 110.882 319.791 110.184C318.679 109.486 317.365 109.136 315.85 109.136C314.181 109.136 312.736 109.551 311.517 110.379C310.31 111.196 309.381 112.261 308.73 113.575C308.079 114.889 307.753 116.298 307.753 117.801V120.216C307.753 122.276 308.108 124.022 308.818 125.454C309.54 126.874 310.541 127.957 311.819 128.703C313.097 129.437 314.583 129.804 316.276 129.804C317.377 129.804 318.371 129.65 319.259 129.342C320.158 129.023 320.934 128.549 321.585 127.922C322.236 127.283 322.739 126.49 323.094 125.543L327.142 126.679C326.716 128.052 326 129.259 324.994 130.301C323.988 131.331 322.745 132.136 321.265 132.716C319.785 133.284 318.122 133.568 316.276 133.568ZM339.448 96.6364H344.491L354.576 113.611H355.002L365.088 96.6364H370.13L356.991 118.014V133H352.588V118.014L339.448 96.6364ZM379.479 133.568C377.017 133.568 374.857 132.982 372.998 131.81C371.152 130.638 369.708 128.999 368.666 126.892C367.636 124.785 367.121 122.323 367.121 119.506C367.121 116.665 367.636 114.185 368.666 112.066C369.708 109.947 371.152 108.302 372.998 107.13C374.857 105.958 377.017 105.372 379.479 105.372C381.941 105.372 384.096 105.958 385.942 107.13C387.801 108.302 389.245 109.947 390.275 112.066C391.316 114.185 391.837 116.665 391.837 119.506C391.837 122.323 391.316 124.785 390.275 126.892C389.245 128.999 387.801 130.638 385.942 131.81C384.096 132.982 381.941 133.568 379.479 133.568ZM379.479 129.804C381.349 129.804 382.888 129.325 384.096 128.366C385.303 127.407 386.197 126.146 386.777 124.584C387.357 123.021 387.647 121.329 387.647 119.506C387.647 117.683 387.357 115.984 386.777 114.41C386.197 112.835 385.303 111.563 384.096 110.592C382.888 109.622 381.349 109.136 379.479 109.136C377.609 109.136 376.07 109.622 374.863 110.592C373.655 111.563 372.762 112.835 372.182 114.41C371.602 115.984 371.312 117.683 371.312 119.506C371.312 121.329 371.602 123.021 372.182 124.584C372.762 126.146 373.655 127.407 374.863 128.366C376.07 129.325 377.609 129.804 379.479 129.804ZM412.421 121.849V105.727H416.612V133H412.421V128.384H412.137C411.498 129.768 410.504 130.946 409.154 131.917C407.805 132.876 406.1 133.355 404.04 133.355C402.336 133.355 400.821 132.982 399.495 132.237C398.169 131.479 397.128 130.343 396.37 128.827C395.612 127.3 395.234 125.377 395.234 123.057V105.727H399.424V122.773C399.424 124.761 399.98 126.348 401.093 127.531C402.218 128.715 403.65 129.307 405.39 129.307C406.432 129.307 407.491 129.04 408.568 128.508C409.657 127.975 410.569 127.158 411.303 126.058C412.048 124.957 412.421 123.554 412.421 121.849ZM421.286 133V105.727H425.335V109.847H425.619C426.116 108.497 427.016 107.402 428.318 106.562C429.62 105.721 431.088 105.301 432.721 105.301C433.029 105.301 433.414 105.307 433.875 105.319C434.337 105.331 434.686 105.348 434.923 105.372V109.634C434.781 109.598 434.455 109.545 433.946 109.474C433.449 109.391 432.922 109.349 432.366 109.349C431.04 109.349 429.856 109.628 428.815 110.184C427.785 110.728 426.968 111.486 426.365 112.457C425.773 113.415 425.477 114.51 425.477 115.741V133H421.286ZM446.532 100.543V96.6364H473.805V100.543H462.37V133H457.967V100.543H446.532ZM484.512 133.568C481.884 133.568 479.617 132.988 477.712 131.828C475.818 130.656 474.356 129.023 473.326 126.928C472.308 124.821 471.799 122.37 471.799 119.577C471.799 116.783 472.308 114.321 473.326 112.19C474.356 110.048 475.788 108.379 477.623 107.183C479.469 105.976 481.624 105.372 484.086 105.372C485.506 105.372 486.909 105.609 488.294 106.082C489.679 106.556 490.94 107.325 492.076 108.391C493.212 109.444 494.118 110.841 494.793 112.581C495.467 114.321 495.805 116.464 495.805 119.009V120.784H474.782V117.162H491.543C491.543 115.623 491.236 114.25 490.62 113.043C490.016 111.835 489.152 110.882 488.028 110.184C486.915 109.486 485.601 109.136 484.086 109.136C482.417 109.136 480.973 109.551 479.754 110.379C478.546 111.196 477.617 112.261 476.966 113.575C476.315 114.889 475.989 116.298 475.989 117.801V120.216C475.989 122.276 476.344 124.022 477.055 125.454C477.777 126.874 478.777 127.957 480.055 128.703C481.334 129.437 482.819 129.804 484.512 129.804C485.613 129.804 486.607 129.65 487.495 129.342C488.395 129.023 489.17 128.549 489.821 127.922C490.472 127.283 490.975 126.49 491.33 125.543L495.379 126.679C494.952 128.052 494.236 129.259 493.23 130.301C492.224 131.331 490.981 132.136 489.501 132.716C488.022 133.284 486.359 133.568 484.512 133.568ZM518.497 111.835L514.733 112.901C514.496 112.273 514.147 111.664 513.685 111.072C513.236 110.468 512.62 109.971 511.839 109.58C511.058 109.19 510.057 108.994 508.838 108.994C507.169 108.994 505.778 109.379 504.665 110.148C503.565 110.906 503.014 111.871 503.014 113.043C503.014 114.084 503.393 114.907 504.151 115.511C504.908 116.114 506.092 116.617 507.702 117.02L511.75 118.014C514.188 118.606 516.005 119.512 517.201 120.731C518.397 121.938 518.994 123.495 518.994 125.401C518.994 126.963 518.545 128.36 517.645 129.591C516.757 130.822 515.514 131.793 513.916 132.503C512.318 133.213 510.46 133.568 508.341 133.568C505.559 133.568 503.257 132.964 501.434 131.757C499.611 130.55 498.457 128.786 497.972 126.466L501.949 125.472C502.328 126.939 503.044 128.04 504.097 128.774C505.163 129.508 506.554 129.875 508.27 129.875C510.223 129.875 511.774 129.461 512.922 128.632C514.082 127.792 514.662 126.786 514.662 125.614C514.662 124.667 514.33 123.874 513.668 123.234C513.005 122.583 511.987 122.098 510.614 121.778L506.068 120.713C503.571 120.121 501.736 119.204 500.564 117.961C499.404 116.706 498.824 115.138 498.824 113.256C498.824 111.717 499.256 110.356 500.12 109.172C500.996 107.988 502.186 107.059 503.689 106.384C505.204 105.71 506.92 105.372 508.838 105.372C511.537 105.372 513.656 105.964 515.195 107.148C516.745 108.331 517.846 109.894 518.497 111.835ZM534.163 105.727V109.278H520.029V105.727H534.163ZM524.149 99.1932H528.339V125.188C528.339 126.371 528.511 127.259 528.854 127.851C529.209 128.431 529.659 128.821 530.203 129.023C530.76 129.212 531.346 129.307 531.961 129.307C532.423 129.307 532.802 129.283 533.097 129.236C533.393 129.177 533.63 129.129 533.808 129.094L534.66 132.858C534.376 132.964 533.979 133.071 533.47 133.178C532.961 133.296 532.316 133.355 531.535 133.355C530.351 133.355 529.191 133.101 528.055 132.592C526.93 132.083 525.995 131.307 525.249 130.266C524.516 129.224 524.149 127.91 524.149 126.324V99.1932Z" fill="black"/>
<path d="M72.519 0.679617V146H46.1939V26.2952H45.3424L11.3539 48.0081V23.8826L47.4711 0.679617H72.519Z" fill="url(#paint1_linear_80_100)"/>
<path d="M571.785 94.1783C572.017 92.7782 573.231 91.75 574.652 91.75H581.351C582.771 91.75 583.986 92.7782 584.218 94.1783L584.768 97.4876C584.931 98.4538 585.577 99.2597 586.435 99.7351C586.626 99.8384 586.814 99.9495 587.003 100.063C587.843 100.569 588.863 100.727 589.78 100.383L592.924 99.2055C593.568 98.9632 594.278 98.9574 594.926 99.1893C595.574 99.4211 596.119 99.8754 596.463 100.471L599.811 106.276C600.155 106.872 600.276 107.571 600.153 108.248C600.03 108.925 599.671 109.536 599.139 109.973L596.548 112.109C595.791 112.732 595.417 113.693 595.438 114.672C595.441 114.891 595.441 115.111 595.438 115.331C595.417 116.307 595.791 117.268 596.548 117.891L599.142 120.027C600.237 120.931 600.522 122.494 599.814 123.721L596.461 129.526C596.117 130.122 595.572 130.576 594.925 130.809C594.277 131.041 593.568 131.036 592.924 130.794L589.78 129.617C588.863 129.273 587.843 129.43 587 129.937C586.813 130.051 586.624 130.161 586.432 130.267C585.577 130.74 584.931 131.546 584.768 132.512L584.218 135.822C583.986 137.224 582.771 138.25 581.351 138.25H574.649C573.229 138.25 572.017 137.222 571.782 135.822L571.232 132.512C571.072 131.546 570.426 130.74 569.568 130.265C569.376 130.159 569.187 130.05 569 129.937C568.16 129.43 567.14 129.273 566.22 129.617L563.076 130.794C562.432 131.036 561.723 131.041 561.076 130.81C560.428 130.578 559.884 130.124 559.54 129.529L556.189 123.724C555.845 123.128 555.724 122.429 555.847 121.752C555.97 121.075 556.329 120.464 556.861 120.027L559.454 117.891C560.209 117.271 560.583 116.307 560.565 115.331C560.561 115.111 560.561 114.891 560.565 114.672C560.583 113.69 560.209 112.732 559.454 112.109L556.861 109.973C556.33 109.536 555.971 108.925 555.848 108.249C555.725 107.572 555.846 106.874 556.189 106.279L559.54 100.474C559.884 99.8775 560.428 99.4226 561.076 99.1904C561.725 98.9581 562.434 98.9634 563.079 99.2055L566.22 100.383C567.14 100.727 568.16 100.569 569 100.063C569.186 99.9495 569.377 99.841 569.568 99.7325C570.426 99.2598 571.072 98.4538 571.232 97.4876L571.785 94.1783Z" stroke="black" stroke-width="3.77167" stroke-linecap="round" stroke-linejoin="round"/>
<path d="M585.75 115C585.75 117.055 584.933 119.027 583.48 120.48C582.027 121.933 580.055 122.75 578 122.75C575.945 122.75 573.973 121.933 572.52 120.48C571.067 119.027 570.25 117.055 570.25 115C570.25 112.945 571.067 110.973 572.52 109.52C573.973 108.067 575.945 107.25 578 107.25C580.055 107.25 582.027 108.067 583.48 109.52C584.933 110.973 585.75 112.945 585.75 115Z" stroke="black" stroke-width="3.77167" stroke-linecap="round" stroke-linejoin="round"/>
<path d="M1039.66 449V428.672L1093.59 375.804C1098.75 370.596 1103.05 365.969 1106.49 361.923C1109.93 357.878 1112.51 353.959 1114.22 350.166C1115.94 346.374 1116.8 342.328 1116.8 338.03C1116.8 333.125 1115.69 328.928 1113.47 325.439C1111.24 321.899 1108.18 319.169 1104.29 317.247C1100.39 315.326 1095.97 314.365 1091.01 314.365C1085.91 314.365 1081.43 315.427 1077.59 317.551C1073.75 319.624 1070.76 322.582 1068.64 326.425C1066.56 330.268 1065.53 334.845 1065.53 340.154H1038.75C1038.75 330.293 1041 321.722 1045.5 314.441C1050 307.159 1056.2 301.521 1064.09 297.526C1072.03 293.531 1081.13 291.534 1091.39 291.534C1101.81 291.534 1110.96 293.481 1118.85 297.374C1126.74 301.268 1132.86 306.603 1137.21 313.379C1141.61 320.155 1143.81 327.892 1143.81 336.589C1143.81 342.404 1142.69 348.118 1140.47 353.731C1138.24 359.344 1134.32 365.564 1128.71 372.391C1123.15 379.217 1115.34 387.485 1105.27 397.194L1078.5 424.424V425.486H1146.16V449H1039.66Z" fill="url(#paint2_linear_80_100)"/>
<path d="M576.181 443H571.565L584.917 406.636H589.462L602.815 443H598.198L587.332 412.389H587.047L576.181 443ZM577.886 428.795H596.494V432.702H577.886V428.795ZM609.101 426.594V443H604.91V415.727H608.959V419.989H609.314C609.953 418.604 610.924 417.491 612.226 416.651C613.528 415.798 615.209 415.372 617.268 415.372C619.115 415.372 620.731 415.751 622.116 416.509C623.501 417.254 624.578 418.391 625.347 419.918C626.117 421.433 626.501 423.35 626.501 425.67V443H622.311V425.955C622.311 423.812 621.755 422.143 620.642 420.947C619.529 419.74 618.002 419.136 616.061 419.136C614.723 419.136 613.528 419.426 612.474 420.006C611.433 420.586 610.61 421.433 610.006 422.545C609.403 423.658 609.101 425.008 609.101 426.594ZM639.184 443.639C637.456 443.639 635.887 443.314 634.479 442.663C633.07 442 631.952 441.047 631.123 439.804C630.294 438.549 629.88 437.034 629.88 435.259C629.88 433.696 630.188 432.429 630.803 431.459C631.419 430.476 632.242 429.707 633.271 429.151C634.301 428.594 635.438 428.18 636.68 427.908C637.935 427.624 639.196 427.399 640.462 427.233C642.12 427.02 643.463 426.86 644.493 426.754C645.535 426.635 646.292 426.44 646.766 426.168C647.251 425.895 647.494 425.422 647.494 424.747V424.605C647.494 422.853 647.014 421.492 646.055 420.521C645.109 419.551 643.67 419.065 641.741 419.065C639.74 419.065 638.172 419.503 637.036 420.379C635.899 421.255 635.1 422.19 634.639 423.185L630.661 421.764C631.372 420.107 632.319 418.817 633.502 417.893C634.698 416.958 636 416.307 637.408 415.94C638.829 415.562 640.226 415.372 641.599 415.372C642.475 415.372 643.481 415.479 644.617 415.692C645.765 415.893 646.872 416.313 647.938 416.952C649.015 417.592 649.908 418.556 650.619 419.847C651.329 421.137 651.684 422.865 651.684 425.031V443H647.494V439.307H647.281C646.997 439.899 646.523 440.532 645.86 441.207C645.197 441.881 644.315 442.455 643.215 442.929C642.114 443.402 640.77 443.639 639.184 443.639ZM639.823 439.875C641.48 439.875 642.877 439.549 644.014 438.898C645.162 438.247 646.026 437.407 646.606 436.377C647.198 435.347 647.494 434.264 647.494 433.128V429.293C647.316 429.506 646.926 429.701 646.322 429.879C645.73 430.044 645.043 430.192 644.262 430.322C643.493 430.441 642.741 430.547 642.007 430.642C641.285 430.725 640.699 430.796 640.249 430.855C639.16 430.997 638.142 431.228 637.195 431.548C636.26 431.855 635.503 432.323 634.923 432.95C634.354 433.566 634.07 434.406 634.07 435.472C634.07 436.928 634.609 438.028 635.686 438.774C636.775 439.508 638.154 439.875 639.823 439.875ZM660.523 406.636V443H656.332V406.636H660.523ZM667.896 453.227C667.186 453.227 666.553 453.168 665.997 453.05C665.44 452.943 665.055 452.837 664.842 452.73L665.908 449.037C666.926 449.297 667.825 449.392 668.607 449.321C669.388 449.25 670.08 448.901 670.684 448.273C671.3 447.658 671.862 446.658 672.371 445.273L673.152 443.142L663.067 415.727H667.612L675.141 437.46H675.425L682.953 415.727H687.499L675.922 446.977C675.401 448.386 674.756 449.552 673.987 450.475C673.217 451.41 672.323 452.103 671.305 452.553C670.299 453.002 669.163 453.227 667.896 453.227ZM689.248 443V439.804L704.731 419.918V419.634H689.745V415.727H710.129V419.065L695.072 438.81V439.094H710.626V443H689.248ZM724.734 443.568C722.106 443.568 719.839 442.988 717.933 441.828C716.039 440.656 714.578 439.023 713.548 436.928C712.53 434.821 712.021 432.37 712.021 429.577C712.021 426.783 712.53 424.321 713.548 422.19C714.578 420.048 716.01 418.379 717.845 417.183C719.691 415.976 721.845 415.372 724.308 415.372C725.728 415.372 727.131 415.609 728.516 416.082C729.901 416.556 731.161 417.325 732.298 418.391C733.434 419.444 734.34 420.841 735.014 422.581C735.689 424.321 736.026 426.464 736.026 429.009V430.784H715.004V427.162H731.765C731.765 425.623 731.457 424.25 730.842 423.043C730.238 421.835 729.374 420.882 728.249 420.184C727.137 419.486 725.823 419.136 724.308 419.136C722.639 419.136 721.194 419.551 719.975 420.379C718.768 421.196 717.839 422.261 717.188 423.575C716.537 424.889 716.211 426.298 716.211 427.801V430.216C716.211 432.276 716.566 434.022 717.276 435.454C717.998 436.874 718.999 437.957 720.277 438.703C721.555 439.437 723.041 439.804 724.734 439.804C725.835 439.804 726.829 439.65 727.717 439.342C728.616 439.023 729.392 438.549 730.043 437.922C730.694 437.283 731.197 436.49 731.552 435.543L735.6 436.679C735.174 438.052 734.458 439.259 733.452 440.301C732.446 441.331 731.203 442.136 729.723 442.716C728.243 443.284 726.58 443.568 724.734 443.568ZM762.324 415.727V419.278H748.19V415.727H762.324ZM752.31 409.193H756.5V435.188C756.5 436.371 756.672 437.259 757.015 437.851C757.37 438.431 757.82 438.821 758.364 439.023C758.921 439.212 759.507 439.307 760.122 439.307C760.584 439.307 760.963 439.283 761.259 439.236C761.555 439.177 761.791 439.129 761.969 439.094L762.821 442.858C762.537 442.964 762.14 443.071 761.631 443.178C761.122 443.296 760.477 443.355 759.696 443.355C758.512 443.355 757.352 443.101 756.216 442.592C755.091 442.083 754.156 441.307 753.411 440.266C752.677 439.224 752.31 437.91 752.31 436.324V409.193ZM770.403 426.594V443H766.213V406.636H770.403V419.989H770.759C771.398 418.58 772.357 417.461 773.635 416.633C774.925 415.792 776.642 415.372 778.784 415.372C780.643 415.372 782.27 415.745 783.667 416.491C785.064 417.225 786.147 418.355 786.916 419.882C787.698 421.397 788.088 423.327 788.088 425.67V443H783.898V425.955C783.898 423.788 783.336 422.113 782.211 420.93C781.098 419.734 779.554 419.136 777.577 419.136C776.204 419.136 774.973 419.426 773.884 420.006C772.806 420.586 771.954 421.433 771.327 422.545C770.711 423.658 770.403 425.008 770.403 426.594ZM804.189 443.568C801.561 443.568 799.294 442.988 797.388 441.828C795.494 440.656 794.033 439.023 793.003 436.928C791.985 434.821 791.476 432.37 791.476 429.577C791.476 426.783 791.985 424.321 793.003 422.19C794.033 420.048 795.465 418.379 797.3 417.183C799.146 415.976 801.301 415.372 803.763 415.372C805.183 415.372 806.586 415.609 807.971 416.082C809.356 416.556 810.616 417.325 811.753 418.391C812.889 419.444 813.795 420.841 814.469 422.581C815.144 424.321 815.481 426.464 815.481 429.009V430.784H794.459V427.162H811.22C811.22 425.623 810.912 424.25 810.297 423.043C809.693 421.835 808.829 420.882 807.704 420.184C806.592 419.486 805.278 419.136 803.763 419.136C802.094 419.136 800.65 419.551 799.43 420.379C798.223 421.196 797.294 422.261 796.643 423.575C795.992 424.889 795.666 426.298 795.666 427.801V430.216C795.666 432.276 796.021 434.022 796.731 435.454C797.454 436.874 798.454 437.957 799.732 438.703C801.011 439.437 802.496 439.804 804.189 439.804C805.29 439.804 806.284 439.65 807.172 439.342C808.071 439.023 808.847 438.549 809.498 437.922C810.149 437.283 810.652 436.49 811.007 435.543L815.055 436.679C814.629 438.052 813.913 439.259 812.907 440.301C811.901 441.331 810.658 442.136 809.178 442.716C807.699 443.284 806.035 443.568 804.189 443.568ZM830.486 443V406.636H842.773C845.614 406.636 847.946 407.122 849.769 408.092C851.592 409.051 852.941 410.371 853.817 412.052C854.693 413.733 855.131 415.644 855.131 417.787C855.131 419.929 854.693 421.829 853.817 423.487C852.941 425.144 851.598 426.446 849.787 427.393C847.976 428.328 845.662 428.795 842.844 428.795H832.901V424.818H842.702C844.644 424.818 846.206 424.534 847.39 423.966C848.585 423.398 849.449 422.593 849.982 421.551C850.527 420.498 850.799 419.243 850.799 417.787C850.799 416.331 850.527 415.058 849.982 413.969C849.438 412.88 848.568 412.04 847.372 411.448C846.177 410.844 844.596 410.543 842.631 410.543H834.89V443H830.486ZM847.603 426.665L856.552 443H851.438L842.631 426.665H847.603ZM870.042 443.568C867.415 443.568 865.148 442.988 863.242 441.828C861.348 440.656 859.886 439.023 858.856 436.928C857.838 434.821 857.329 432.37 857.329 429.577C857.329 426.783 857.838 424.321 858.856 422.19C859.886 420.048 861.318 418.379 863.153 417.183C865 415.976 867.154 415.372 869.616 415.372C871.037 415.372 872.439 415.609 873.824 416.082C875.209 416.556 876.47 417.325 877.606 418.391C878.743 419.444 879.648 420.841 880.323 422.581C880.998 424.321 881.335 426.464 881.335 429.009V430.784H860.312V427.162H877.074C877.074 425.623 876.766 424.25 876.15 423.043C875.547 421.835 874.682 420.882 873.558 420.184C872.445 419.486 871.131 419.136 869.616 419.136C867.947 419.136 866.503 419.551 865.284 420.379C864.076 421.196 863.147 422.261 862.496 423.575C861.845 424.889 861.52 426.298 861.52 427.801V430.216C861.52 432.276 861.875 434.022 862.585 435.454C863.307 436.874 864.307 437.957 865.586 438.703C866.864 439.437 868.35 439.804 870.042 439.804C871.143 439.804 872.138 439.65 873.025 439.342C873.925 439.023 874.7 438.549 875.351 437.922C876.002 437.283 876.505 436.49 876.861 435.543L880.909 436.679C880.483 438.052 879.767 439.259 878.76 440.301C877.754 441.331 876.511 442.136 875.032 442.716C873.552 443.284 871.889 443.568 870.042 443.568ZM904.027 421.835L900.263 422.901C900.026 422.273 899.677 421.664 899.216 421.072C898.766 420.468 898.15 419.971 897.369 419.58C896.588 419.19 895.588 418.994 894.368 418.994C892.699 418.994 891.308 419.379 890.196 420.148C889.095 420.906 888.544 421.871 888.544 423.043C888.544 424.084 888.923 424.907 889.681 425.511C890.438 426.114 891.622 426.617 893.232 427.02L897.28 428.014C899.719 428.606 901.536 429.512 902.731 430.731C903.927 431.938 904.525 433.495 904.525 435.401C904.525 436.963 904.075 438.36 903.175 439.591C902.287 440.822 901.044 441.793 899.446 442.503C897.848 443.213 895.99 443.568 893.871 443.568C891.089 443.568 888.787 442.964 886.964 441.757C885.141 440.55 883.987 438.786 883.502 436.466L887.479 435.472C887.858 436.939 888.574 438.04 889.628 438.774C890.693 439.508 892.084 439.875 893.8 439.875C895.753 439.875 897.304 439.461 898.452 438.632C899.612 437.792 900.192 436.786 900.192 435.614C900.192 434.667 899.861 433.874 899.198 433.234C898.535 432.583 897.517 432.098 896.144 431.778L891.598 430.713C889.101 430.121 887.266 429.204 886.094 427.961C884.934 426.706 884.354 425.138 884.354 423.256C884.354 421.717 884.786 420.356 885.65 419.172C886.526 417.988 887.716 417.059 889.219 416.384C890.734 415.71 892.451 415.372 894.368 415.372C897.067 415.372 899.186 415.964 900.725 417.148C902.276 418.331 903.376 419.894 904.027 421.835ZM925.02 431.849V415.727H929.21V443H925.02V438.384H924.736C924.097 439.768 923.102 440.946 921.753 441.917C920.403 442.876 918.699 443.355 916.639 443.355C914.935 443.355 913.419 442.982 912.094 442.237C910.768 441.479 909.726 440.343 908.969 438.827C908.211 437.3 907.832 435.377 907.832 433.057V415.727H912.023V432.773C912.023 434.761 912.579 436.348 913.692 437.531C914.816 438.715 916.248 439.307 917.989 439.307C919.03 439.307 920.09 439.04 921.167 438.508C922.256 437.975 923.167 437.158 923.901 436.058C924.647 434.957 925.02 433.554 925.02 431.849ZM938.075 406.636V443H933.885V406.636H938.075ZM954.611 415.727V419.278H940.478V415.727H954.611ZM944.597 409.193H948.787V435.188C948.787 436.371 948.959 437.259 949.302 437.851C949.657 438.431 950.107 438.821 950.652 439.023C951.208 439.212 951.794 439.307 952.409 439.307C952.871 439.307 953.25 439.283 953.546 439.236C953.842 439.177 954.078 439.129 954.256 439.094L955.108 442.858C954.824 442.964 954.428 443.071 953.919 443.178C953.41 443.296 952.764 443.355 951.983 443.355C950.8 443.355 949.639 443.101 948.503 442.592C947.379 442.083 946.443 441.307 945.698 440.266C944.964 439.224 944.597 437.91 944.597 436.324V409.193ZM976.744 421.835L972.98 422.901C972.743 422.273 972.394 421.664 971.932 421.072C971.483 420.468 970.867 419.971 970.086 419.58C969.305 419.19 968.304 418.994 967.085 418.994C965.416 418.994 964.025 419.379 962.913 420.148C961.812 420.906 961.261 421.871 961.261 423.043C961.261 424.084 961.64 424.907 962.398 425.511C963.155 426.114 964.339 426.617 965.949 427.02L969.997 428.014C972.436 428.606 974.253 429.512 975.448 430.731C976.644 431.938 977.241 433.495 977.241 435.401C977.241 436.963 976.792 438.36 975.892 439.591C975.004 440.822 973.761 441.793 972.163 442.503C970.565 443.213 968.707 443.568 966.588 443.568C963.806 443.568 961.504 442.964 959.681 441.757C957.858 440.55 956.704 438.786 956.219 436.466L960.196 435.472C960.575 436.939 961.291 438.04 962.344 438.774C963.41 439.508 964.801 439.875 966.517 439.875C968.47 439.875 970.021 439.461 971.169 438.632C972.329 437.792 972.909 436.786 972.909 435.614C972.909 434.667 972.578 433.874 971.915 433.234C971.252 432.583 970.234 432.098 968.861 431.778L964.315 430.713C961.818 430.121 959.983 429.204 958.811 427.961C957.651 426.706 957.071 425.138 957.071 423.256C957.071 421.717 957.503 420.356 958.367 419.172C959.243 417.988 960.433 417.059 961.936 416.384C963.451 415.71 965.168 415.372 967.085 415.372C969.784 415.372 971.903 415.964 973.442 417.148C974.992 418.331 976.093 419.894 976.744 421.835Z" fill="black"/>
<path d="M518.656 427.563L540.094 404.594L535.5 421.438H552.344L530.906 444.406L535.5 427.563H518.656Z" stroke="black" stroke-width="2.59292" stroke-linecap="round" stroke-linejoin="round"/>
<path d="M59 149.613L56.1132 152.5L59 155.387L61.8868 152.5L59 149.613ZM1091 288.887L1093.89 286L1091 283.113L1088.11 286L1091 288.887ZM58.5 152.5V164.5H59.5V152.5H58.5ZM109 215H1041V214H109V215ZM1090.5 264.5V286H1091.5V264.5H1090.5ZM1041 215C1068.34 215 1090.5 237.162 1090.5 264.5H1091.5C1091.5 236.61 1068.89 214 1041 214V215ZM58.5 164.5C58.5 192.39 81.1096 215 109 215V214C81.6619 214 59.5 191.838 59.5 164.5H58.5Z" fill="url(#paint3_linear_80_100)"/>
<path d="M78 591.387L75.1132 588.5L78 585.613L80.8868 588.5L78 591.387ZM1091 448.113L1093.89 451L1091 453.887L1088.11 451L1091 448.113ZM77.5 588.5V571.469H78.5V588.5H77.5ZM128 520.969H1041V521.969H128V520.969ZM1090.5 471.469V451H1091.5V471.469H1090.5ZM1041 520.969C1068.34 520.969 1090.5 498.807 1090.5 471.469H1091.5C1091.5 499.36 1068.89 521.969 1041 521.969V520.969ZM77.5 571.469C77.5 543.579 100.11 520.969 128 520.969V521.969C100.662 521.969 78.5 544.131 78.5 571.469H77.5Z" fill="url(#paint4_linear_80_100)"/>
<defs>
<linearGradient id="paint0_linear_80_100" x1="80" y1="597" x2="80" y2="839" gradientUnits="userSpaceOnUse">
<stop stop-color="#CACACA"/>
<stop offset="1" stop-color="#DADADA" stop-opacity="0"/>
</linearGradient>
<linearGradient id="paint1_linear_80_100" x1="48.5" y1="1" x2="48.5" y2="227.387" gradientUnits="userSpaceOnUse">
<stop stop-color="#CACACA"/>
<stop offset="1" stop-color="#DADADA" stop-opacity="0"/>
</linearGradient>
<linearGradient id="paint2_linear_80_100" x1="1092.19" y1="294" x2="1092.19" y2="536" gradientUnits="userSpaceOnUse">
<stop stop-color="#CACACA"/>
<stop offset="1" stop-color="#DADADA" stop-opacity="0"/>
</linearGradient>
<linearGradient id="paint3_linear_80_100" x1="25.5" y1="135" x2="1182" y2="241.5" gradientUnits="userSpaceOnUse">
<stop stop-opacity="0"/>
<stop offset="0.487143" stop-color="white"/>
<stop offset="1" stop-opacity="0"/>
</linearGradient>
<linearGradient id="paint4_linear_80_100" x1="-9.00008" y1="576.999" x2="1131.57" y2="430.21" gradientUnits="userSpaceOnUse">
<stop stop-opacity="0"/>
<stop offset="0.487143" stop-color="white"/>
<stop offset="1" stop-opacity="0"/>
</linearGradient>
</defs>
</svg>
