<svg width="24" height="28" viewBox="0 0 24 28" fill="none" xmlns="http://www.w3.org/2000/svg">
<path fill-rule="evenodd" clip-rule="evenodd" d="M11.5433 1.0025C11.6819 0.918821 11.8395 0.874725 12 0.874725C12.1605 0.874725 12.3181 0.918821 12.4568 1.0025L15.1755 2.64375C15.3766 2.77234 15.5211 2.97711 15.5783 3.21438C15.6355 3.45165 15.6008 3.70264 15.4816 3.91383C15.3624 4.12501 15.1682 4.27966 14.9404 4.3448C14.7125 4.40994 14.4691 4.38041 14.262 4.2625L12 2.8975L9.738 4.2625C9.63513 4.32829 9.52057 4.37211 9.40108 4.39139C9.28158 4.41066 9.15957 4.405 9.04222 4.37473C8.92487 4.34447 8.81457 4.29021 8.71781 4.21516C8.62105 4.14011 8.53978 4.04578 8.47881 3.93773C8.41784 3.82969 8.37839 3.71011 8.36278 3.58604C8.34718 3.46198 8.35574 3.33594 8.38795 3.21535C8.42017 3.09476 8.47539 2.98206 8.55036 2.8839C8.62534 2.78573 8.71855 2.70408 8.8245 2.64375L11.5433 1.0025ZM4.62675 6.2625C4.74757 6.4772 4.78107 6.73273 4.7199 6.97296C4.65873 7.21319 4.50788 7.41849 4.3005 7.54375L2.923 8.375L4.3005 9.20625C4.40645 9.26658 4.49966 9.34823 4.57464 9.4464C4.64961 9.54456 4.70483 9.65726 4.73705 9.77785C4.76926 9.89844 4.77782 10.0245 4.76222 10.1485C4.74661 10.2726 4.70716 10.3922 4.64619 10.5002C4.58522 10.6083 4.50395 10.7026 4.40719 10.7777C4.31043 10.8527 4.20013 10.907 4.08278 10.9372C3.96543 10.9675 3.84342 10.9732 3.72392 10.9539C3.60443 10.9346 3.48987 10.8908 3.387 10.825L2.03125 10.0075V11.1875C2.03125 11.4361 1.93577 11.6746 1.76582 11.8504C1.59586 12.0262 1.36535 12.125 1.125 12.125C0.884648 12.125 0.654139 12.0262 0.484184 11.8504C0.31423 11.6746 0.21875 11.4361 0.21875 11.1875V8.375C0.218703 8.21113 0.260182 8.0501 0.339052 7.90797C0.417922 7.76585 0.531426 7.6476 0.66825 7.565L3.387 5.925C3.48982 5.86292 3.60345 5.82241 3.72141 5.80577C3.83937 5.78913 3.95934 5.7967 4.07447 5.82804C4.1896 5.85938 4.29763 5.91389 4.39239 5.98843C4.48716 6.06298 4.56679 6.15611 4.62675 6.2625ZM19.3732 6.2625C19.4332 6.15611 19.5128 6.06298 19.6076 5.98843C19.7024 5.91389 19.8104 5.85938 19.9255 5.82804C20.0407 5.7967 20.1606 5.78913 20.2786 5.80577C20.3965 5.82241 20.5102 5.86292 20.613 5.925L23.3318 7.565C23.4686 7.6476 23.5821 7.76585 23.6609 7.90797C23.7398 8.0501 23.7813 8.21113 23.7812 8.375V11.1875C23.7812 11.4361 23.6858 11.6746 23.5158 11.8504C23.3459 12.0262 23.1154 12.125 22.875 12.125C22.6346 12.125 22.4041 12.0262 22.2342 11.8504C22.0642 11.6746 21.9688 11.4361 21.9688 11.1875V10.0075L20.613 10.825C20.5101 10.8908 20.3956 10.9346 20.2761 10.9539C20.1566 10.9732 20.0346 10.9675 19.9172 10.9372C19.7999 10.907 19.6896 10.8527 19.5928 10.7777C19.496 10.7026 19.4148 10.6083 19.3538 10.5002C19.2928 10.3922 19.2534 10.2726 19.2378 10.1485C19.2222 10.0245 19.2307 9.89844 19.263 9.77785C19.2952 9.65726 19.3504 9.54456 19.4254 9.4464C19.5003 9.34823 19.5935 9.26658 19.6995 9.20625L21.077 8.375L19.6995 7.54375C19.4921 7.41849 19.3413 7.21319 19.2801 6.97296C19.2189 6.73273 19.2524 6.4772 19.3732 6.2625ZM8.49825 12.825C8.55821 12.7186 8.63785 12.6255 8.73261 12.5509C8.82737 12.4764 8.9354 12.4219 9.05053 12.3905C9.16566 12.3592 9.28563 12.3516 9.40359 12.3683C9.52155 12.3849 9.63518 12.4254 9.738 12.4875L12 13.8525L14.262 12.4875C14.3649 12.4217 14.4794 12.3779 14.5989 12.3586C14.7184 12.3393 14.8404 12.345 14.9578 12.3753C15.0751 12.4055 15.1854 12.4598 15.2822 12.5348C15.379 12.6099 15.4602 12.7042 15.5212 12.8123C15.5822 12.9203 15.6216 13.0399 15.6372 13.164C15.6528 13.288 15.6443 13.4141 15.612 13.5347C15.5798 13.6552 15.5246 13.7679 15.4496 13.8661C15.3747 13.9643 15.2815 14.0459 15.1755 14.1063L12.9062 15.4763V17.75C12.9062 17.9986 12.8108 18.2371 12.6408 18.4129C12.4709 18.5887 12.2404 18.6875 12 18.6875C11.7596 18.6875 11.5291 18.5887 11.3592 18.4129C11.1892 18.2371 11.0938 17.9986 11.0938 17.75V15.475L8.8245 14.1063C8.61712 13.981 8.46627 13.7757 8.4051 13.5355C8.34393 13.2952 8.37743 13.0397 8.49825 12.825ZM1.125 15.875C1.36535 15.875 1.59586 15.9738 1.76582 16.1496C1.93577 16.3254 2.03125 16.5639 2.03125 16.8125V19.0875L4.3005 20.4563C4.40645 20.5166 4.49966 20.5982 4.57464 20.6964C4.64961 20.7946 4.70483 20.9073 4.73705 21.0279C4.76926 21.1484 4.77782 21.2745 4.76222 21.3985C4.74661 21.5226 4.70716 21.6422 4.64619 21.7502C4.58522 21.8583 4.50395 21.9526 4.40719 22.0277C4.31043 22.1027 4.20013 22.157 4.08278 22.1872C3.96543 22.2175 3.84342 22.2232 3.72392 22.2039C3.60443 22.1846 3.48987 22.1408 3.387 22.075L0.66825 20.435C0.531426 20.3524 0.417922 20.2342 0.339052 20.092C0.260182 19.9499 0.218703 19.7889 0.21875 19.625V16.8125C0.21875 16.5639 0.31423 16.3254 0.484184 16.1496C0.654139 15.9738 0.884648 15.875 1.125 15.875ZM22.875 15.875C23.1154 15.875 23.3459 15.9738 23.5158 16.1496C23.6858 16.3254 23.7812 16.5639 23.7812 16.8125V19.625C23.7813 19.7889 23.7398 19.9499 23.6609 20.092C23.5821 20.2342 23.4686 20.3524 23.3318 20.435L20.613 22.075C20.5101 22.1408 20.3956 22.1846 20.2761 22.2039C20.1566 22.2232 20.0346 22.2175 19.9172 22.1872C19.7999 22.157 19.6896 22.1027 19.5928 22.0277C19.496 21.9526 19.4148 21.8583 19.3538 21.7502C19.2928 21.6422 19.2534 21.5226 19.2378 21.3985C19.2222 21.2745 19.2307 21.1484 19.263 21.0279C19.2952 20.9073 19.3504 20.7946 19.4254 20.6964C19.5003 20.5982 19.5935 20.5166 19.6995 20.4563L21.9688 19.0863V16.8125C21.9688 16.5639 22.0642 16.3254 22.2342 16.1496C22.4041 15.9738 22.6346 15.875 22.875 15.875ZM12 22.4375C12.2404 22.4375 12.4709 22.5363 12.6408 22.7121C12.8108 22.8879 12.9062 23.1264 12.9062 23.375V24.555L14.262 23.7375C14.3649 23.6717 14.4794 23.6279 14.5989 23.6086C14.7184 23.5893 14.8404 23.595 14.9578 23.6253C15.0751 23.6555 15.1854 23.7098 15.2822 23.7848C15.379 23.8599 15.4602 23.9542 15.5212 24.0623C15.5822 24.1703 15.6216 24.2899 15.6372 24.414C15.6528 24.538 15.6443 24.6641 15.612 24.7847C15.5798 24.9052 15.5246 25.0179 15.4496 25.1161C15.3747 25.2143 15.2815 25.2959 15.1755 25.3563L12.4568 26.9975C12.3181 27.0812 12.1605 27.1253 12 27.1253C11.8395 27.1253 11.6819 27.0812 11.5433 26.9975L8.8245 25.3563C8.71855 25.2959 8.62534 25.2143 8.55036 25.1161C8.47539 25.0179 8.42017 24.9052 8.38795 24.7847C8.35574 24.6641 8.34718 24.538 8.36278 24.414C8.37839 24.2899 8.41784 24.1703 8.47881 24.0623C8.53978 23.9542 8.62105 23.8599 8.71781 23.7848C8.81457 23.7098 8.92487 23.6555 9.04222 23.6253C9.15957 23.595 9.28158 23.5893 9.40108 23.6086C9.52057 23.6279 9.63513 23.6717 9.738 23.7375L11.0938 24.555V23.375C11.0938 23.1264 11.1892 22.8879 11.3592 22.7121C11.5291 22.5363 11.7596 22.4375 12 22.4375Z" fill="black"/>
</svg>
